<?xml version="1.0" encoding="utf-8" standalone="no"?>
<!DOCTYPE svg PUBLIC "-//W3C//DTD SVG 1.1//EN"
  "http://www.w3.org/Graphics/SVG/1.1/DTD/svg11.dtd">
<!-- Created with matplotlib (http://matplotlib.org/) -->
<svg height="276pt" version="1.1" viewBox="0 0 276 276" width="276pt" xmlns="http://www.w3.org/2000/svg" xmlns:xlink="http://www.w3.org/1999/xlink">
 <defs>
  <style type="text/css">
*{stroke-linecap:square;stroke-linejoin:round;}
  </style>
 </defs>
 <g id="figure_1">
  <g id="patch_1">
   <path d="
M-3.55271e-15 276.48
L276.478 276.48
L276.478 0
L-3.55271e-15 0
z
" style="fill:#ffffff;"/>
  </g>
  <g id="axes_1">
   <g id="patch_2">
    <path d="
M7.2 269.28
L269.278 269.28
L269.278 7.2
L7.2 7.2
z
" style="fill:#ffffff;"/>
   </g>
   <g id="patch_3">
    <path clip-path="url(#pd365994b75)" d="
M138.238 138.24
L138.238 138.24
L138.238 138.24
L138.238 138.24
L138.238 138.24
L138.238 138.24
L138.238 138.24
L138.238 138.24
L138.238 138.24
L138.238 138.24
L138.238 138.24
L138.238 138.24
L138.238 138.24
L138.238 138.24
L138.238 138.24
L138.238 138.24
L138.238 138.24
L138.238 138.24
L138.238 138.24
L138.238 138.24
L138.238 138.24
L138.238 138.24
L138.238 138.24
L138.238 138.24
L138.238 138.24
L138.238 138.24
L138.238 138.24
L138.238 138.24
L138.238 138.24
L138.238 138.24
L138.238 138.24
L138.238 138.24
L138.238 138.24
L138.238 138.24
L138.238 138.24
L138.238 138.24
L138.238 138.24
L138.238 138.24
L138.238 138.24
L138.238 138.24
L138.238 138.24
L138.238 138.24
L138.238 138.24
L138.238 138.24
L138.238 138.24
L138.238 138.24
L138.238 138.24
L138.238 138.24
L138.238 138.24
L138.238 138.24
L138.238 138.24
L138.238 138.24
L138.238 138.24
L138.238 138.24
L138.238 138.24
L138.238 138.24
L138.238 138.24
L138.238 138.24
L138.238 138.24
L138.238 138.24
L138.238 138.24
L138.238 138.24
L138.238 138.24
L138.238 138.24
L138.238 138.24
L138.238 138.24
L138.238 138.24
L138.238 138.24
L138.238 138.24
L138.238 138.24
L138.238 138.24
L138.238 138.24
L138.238 138.24
L138.238 138.24
L138.238 138.24
L138.238 138.24
L138.238 138.24
L138.238 138.24
L138.238 138.24
L138.238 138.24
L138.238 138.24
L138.238 138.24
L138.238 138.24
L138.238 138.24
L138.238 138.24
L138.238 138.24
L138.238 138.24
L138.238 138.24
L138.238 138.24
L138.238 138.24
L138.238 138.24
L138.238 138.24
L138.238 138.24
L138.238 138.24
L138.238 138.24
L138.238 138.24
L138.238 138.24
L138.238 138.24
L138.238 138.24
L138.238 138.24
L138.238 138.24
L138.238 138.24
L138.238 138.24
L138.238 138.24
L138.238 138.24
L138.238 138.24
L138.238 138.24
L138.238 138.24
L138.238 138.24
L138.238 138.24
L138.238 138.24
L138.238 138.24
L138.238 138.24
L138.238 138.24
L138.238 138.24
L138.238 138.24
L138.238 138.24
L138.238 138.24
L138.238 138.24
L138.238 138.24
L138.238 138.24
L138.238 138.24
L138.238 138.24
L138.238 138.24
L138.238 138.24
L138.238 138.24
L138.238 138.24
L138.238 138.24
L138.238 138.24
L138.238 138.24
L138.238 138.24
L138.238 138.24
L138.238 138.24
L138.238 138.24
L138.238 138.24
L138.238 138.24
L138.238 138.24
L138.238 138.24
L138.238 138.24
L138.238 138.24
L138.238 138.24
L138.238 138.24
L138.238 138.24
L138.238 138.24
L138.238 138.24
L138.238 138.24
L138.238 138.24
L138.238 138.24
L138.238 138.24
L138.238 138.24
L138.238 138.24
L138.238 138.24
L138.238 138.24
L138.238 138.24
L138.238 138.24
L138.238 138.24
L138.238 138.24
L138.238 138.24
L138.238 138.24
L138.238 138.24
L138.238 138.24
L138.238 138.24
L138.238 138.24
L138.238 138.24
L138.238 138.24
L138.238 138.24
L138.238 138.24
L138.238 138.24
L138.238 138.24
L138.238 138.24
L138.238 138.24
L138.238 138.24
L138.238 138.24
L138.238 138.24
L138.238 138.24
L138.238 138.24
L138.238 138.24
L138.238 138.24
L138.238 138.24
L138.238 138.24
L138.238 138.24
L138.238 138.24
L138.238 138.24
L138.238 138.24
L138.238 138.24
L138.238 138.24
L138.238 138.24
L138.238 138.24
L138.238 138.24
L138.238 138.24
L138.238 138.24
L138.238 138.24
L138.238 138.24
L138.238 138.24
L138.238 138.24
L138.238 138.24
L138.238 138.24
L138.238 138.24
L138.238 138.24
L138.238 138.24
L264.238 138.24
L264.222 137.128
L264.174 136.017
L264.093 134.904
L263.98 133.794
L263.835 132.686
L263.658 131.581
L263.388 130.186
L263.067 128.798
L262.697 127.419
L262.277 126.051
L261.916 124.991
L261.525 123.939
L261.139 122.975
L260.73 122.018
L260.297 121.07
L259.84 120.129
L259.244 118.978
L258.614 117.84
L257.952 116.717
L257.257 115.61
L256.622 114.651
L255.965 113.705
L255.285 112.772
L254.583 111.852
L253.902 110.997
L253.204 110.154
L251.757 108.506
L250.671 107.345
L249.555 106.213
L248.386 105.083
L247.189 103.982
L245.968 102.91
L244.724 101.867
L243.578 100.945
L241.56 99.4027
L239.509 97.9296
L236.731 96.063
L233.867 94.2679
L231.34 92.7734
L228.83 91.3548
L227.346 90.5408
L225.876 89.7485
L224.269 88.8953
L222.686 88.0628
L221.806 87.6014
L220.934 87.1451
L220.071 86.6931
L219.218 86.2449
L218.329 85.7753
L217.452 85.3085
L216.185 84.6257
L214.946 83.945
L213.747 83.2709
L212.577 82.5942
L211.437 81.9127
L210.326 81.2241
L209.719 80.8358
L209.122 80.4441
L208.533 80.0489
L207.954 79.6497
L207.028 78.9876
L206.126 78.3125
L205.605 77.9066
L205.091 77.4953
L204.587 77.0785
L204.09 76.6557
L203.238 75.8991
L202.821 75.5133
L202.41 75.1223
L201.975 74.6973
L201.548 74.2661
L201.126 73.8283
L200.711 73.3838
L200.301 72.9326
L199.897 72.4744
L199.499 72.0091
L199.105 71.5367
L198.764 71.1159
L198.306 70.5338
L197.854 69.941
L197.408 69.3374
L196.968 68.7229
L196.324 67.7896
L195.69 66.8318
L195.064 65.8496
L194.445 64.8431
L194.087 64.2452
L193.731 63.6392
L193.376 63.0252
L193.021 62.4031
L192.532 61.5306
L192.043 60.6433
L191.654 59.9276
L191.264 59.203
L190.873 58.4696
L190.48 57.7278
L189.687 56.2199
L188.881 54.6816
L188.307 53.5857
L187.652 52.3392
L186.983 51.078
L186.177 49.5751
L185.349 48.057
L184.496 46.5264
L183.617 44.9865
L181.96 42.1997
L181.049 40.7372
L177.975 36.1552
L176.48 34.1234
L174.322 31.4043
L173.194 30.078
L172.032 28.7781
L170.669 27.3337
L169.263 25.9319
L168.051 24.7931
L166.811 23.6898
L165.149 22.3084
L164.301 21.6437
L163.441 20.997
L161.876 19.889
L160.276 18.8445
L159.47 18.3513
L158.657 17.8749
L157.836 17.4157
L157.008 16.974
L155.626 16.2847
L154.225 15.6454
L152.808 15.0577
L151.375 14.5229
L150.528 14.2343
L149.676 13.9646
L148.821 13.7138
L147.961 13.4822
L146.882 13.2201
L145.797 12.9884
L144.708 12.7876
L143.616 12.6178
L142.086 12.4331
L140.774 12.3238
L139.46 12.2594
L138.145 12.24
L136.83 12.2657
L135.463 12.3404
L134.098 12.4637
L132.737 12.6355
L131.381 12.8554
L130.227 13.0812
L129.069 13.3438
L127.918 13.641
L126.774 13.9727
L125.637 14.3382
L124.416 14.7714
L123.206 15.2431
L122.109 15.7078
L121.022 16.2035
L119.946 16.7295
L118.881 17.2851
L117.533 18.0406
L116.205 18.8422
L115.338 19.3968
L114.482 19.9702
L113.636 20.562
L112.8 21.1717
L111.712 22.0035
L110.643 22.8642
L109.594 23.7523
L108.564 24.6665
L106.861 26.276
L105.216 27.9496
L103.555 29.768
L101.959 31.6402
L100.989 32.8416
L99.5574 34.7076
L98.1846 36.6028
L96.0464 39.7701
L94.3745 42.4333
L92.7965 45.0956
L91.988 46.5126
L91.2021 47.9218
L90.1661 49.822
L89.1643 51.6974
L88.3949 53.156
L87.6413 54.5935
L87.0492 55.7248
L86.4643 56.8402
L85.8851 57.9387
L85.3105 59.0195
L84.8599 59.8581
L84.4105 60.6849
L84.0216 61.3914
L83.6328 62.0886
L83.2435 62.7763
L82.8533 63.4545
L82.2491 64.4806
L81.6403 65.4832
L81.0252 66.4621
L80.4023 67.4172
L80.1652 67.7711
L79.5416 68.6758
L78.9072 69.5578
L78.2608 70.4172
L77.601 71.2544
L77.1044 71.8589
L76.5993 72.4517
L76.0855 73.0331
L75.5625 73.6034
L75.1292 74.0599
L74.6894 74.5094
L74.1176 75.0736
L73.5343 75.6269
L72.9393 76.1699
L72.3321 76.703
L71.8747 77.0914
L71.4104 77.4749
L70.9391 77.8535
L70.4606 78.2276
L69.5758 78.8944
L68.667 79.5482
L67.7341 80.1907
L66.7768 80.8232
L66.0156 81.3091
L65.2396 81.7906
L64.4491 82.2686
L63.6441 82.7436
L62.7006 83.2873
L61.7385 83.8294
L60.5133 84.5049
L59.2607 85.182
L57.9485 85.8807
L56.6099 86.586
L55.5332 87.1503
L54.4419 87.7215
L53.3369 88.3007
L52.2192 88.889
L51.1296 89.4666
L50.0303 90.0547
L48.9223 90.6543
L47.8067 91.2664
L46.063 92.2431
L43.2171 93.9018
L39.3636 96.3116
L34.7068 99.5584
L32.5388 101.231
L30.4224 102.985
L30.0079 103.344
L28.6001 104.608
L27.2274 105.911
L25.8937 107.254
L24.6027 108.634
L23.6398 109.724
L22.7062 110.835
L21.4633 112.412
L20.2838 114.029
L19.5629 115.086
L18.8708 116.158
L18.2991 117.093
L17.75 118.038
L17.2241 118.994
L16.7221 119.959
L16.2195 120.986
L15.7445 122.024
L15.2978 123.07
L14.8797 124.126
L14.3747 125.526
L13.9212 126.94
L13.5202 128.365
L13.1726 129.8
L12.9447 130.896
L12.7483 131.996
L12.5836 133.099
L12.4507 134.206
L12.365 135.123
L12.3013 136.042
L12.2596 136.961
L12.24 137.881
L12.2449 138.951
L12.2796 140.021
L12.3661 141.369
L12.4998 142.715
L12.6806 144.056
L12.9082 145.392
L13.1112 146.399
L13.3406 147.402
L13.5961 148.401
L13.8774 149.394
L14.2266 150.511
L14.6081 151.62
L15.0214 152.721
L15.4659 153.812
L16.0897 155.217
L16.7641 156.604
L17.3204 157.665
L17.9054 158.715
L18.5184 159.751
L19.1585 160.775
L19.9911 162.029
L20.6991 163.035
L21.4321 164.027
L22.1893 165.003
L22.9697 165.964
L23.8857 167.04
L24.829 168.094
L26.0502 169.388
L27.3089 170.648
L28.6018 171.873
L29.9258 173.064
L31.0761 174.051
L33.5218 176.022
L36.0276 177.886
L40.0505 180.614
L42.1017 181.902
L44.9292 183.586
L46.2229 184.328
L47.5106 185.05
L48.92 185.824
L50.3173 186.579
L51.7003 187.316
L53.0669 188.037
L53.9523 188.502
L54.8292 188.961
L55.6972 189.415
L56.5558 189.866
L57.6482 190.44
L58.7234 191.011
L59.456 191.403
L60.1798 191.793
L60.8945 192.184
L61.6 192.573
L62.8047 193.252
L63.9802 193.933
L64.5705 194.284
L65.1529 194.636
L65.7274 194.99
L66.2939 195.347
L66.8471 195.702
L67.3924 196.061
L67.9299 196.422
L68.4595 196.786
L69.0428 197.198
L69.6164 197.615
L70.1804 198.038
L70.7348 198.465
L71.5578 199.126
L72.3595 199.801
L73.1405 200.491
L73.9015 201.199
L74.6314 201.912
L75.3433 202.644
L76.0675 203.427
L76.7741 204.231
L77.4642 205.057
L78.139 205.905
L78.8345 206.823
L79.4317 207.649
L80.0193 208.494
L80.5982 209.359
L81.1697 210.245
L81.5419 210.838
L81.9117 211.44
L82.2794 212.05
L82.6455 212.669
L83.0125 213.301
L83.3784 213.941
L83.7437 214.589
L84.1088 215.246
L84.5585 216.066
L85.009 216.898
L85.4609 217.742
L85.915 218.598
L86.6025 219.903
L87.2985 221.231
L88.1529 222.863
L89.0269 224.523
L89.5476 225.504
L90.077 226.492
L91.1644 228.49
L91.9028 229.816
L92.6611 231.149
L94.0064 233.438
L95.4197 235.731
L97.7184 239.209
L99.2358 241.338
L100.766 243.355
L102.367 245.33
L104.046 247.264
L105.798 249.136
L106.698 250.043
L107.615 250.932
L108.616 251.86
L109.636 252.764
L110.675 253.642
L111.734 254.494
L112.912 255.391
L114.381 256.44
L115.882 257.434
L117.412 258.369
L118.97 259.243
L119.813 259.683
L120.664 260.105
L121.521 260.508
L122.385 260.892
L123.815 261.479
L125.26 262.012
L126.567 262.443
L127.885 262.83
L128.794 263.068
L129.707 263.285
L130.623 263.48
L131.543 263.653
L132.466 263.804
L133.391 263.933
L134.318 264.039
L135.247 264.123
L135.927 264.17
L137.09 264.223
L138.253 264.24
L139.416 264.222
L140.579 264.169
L141.395 264.11
L142.21 264.034
L143.023 263.941
L143.835 263.83
L144.646 263.703
L145.454 263.558
L146.26 263.397
L147.063 263.218
L148.465 262.864
L150.022 262.408
L151.565 261.89
L153.091 261.309
L154.599 260.67
L155.578 260.218
L156.549 259.741
L158.005 258.971
L159.438 258.148
L160.364 257.58
L161.278 256.991
L162.181 256.381
L163.073 255.751
L164.272 254.858
L165.448 253.931
L166.601 252.97
L167.73 251.978
L168.617 251.163
L169.487 250.33
L171.182 248.613
L172.341 247.363
L173.468 246.085
L175.103 244.12
L176.667 242.11
L178.835 239.098
L181.18 235.536
L182.318 233.69
L183.412 231.846
L184.234 230.417
L185.033 228.995
L186.096 227.055
L187.123 225.139
L187.612 224.216
L188.261 222.982
L188.899 221.764
L189.528 220.563
L190.149 219.38
L190.909 217.943
L191.662 216.538
L192.352 215.275
L193.041 214.042
L193.519 213.205
L194 212.383
L194.483 211.576
L194.969 210.783
L195.473 209.985
L195.982 209.202
L196.497 208.436
L197.019 207.685
L197.251 207.36
L197.735 206.698
L198.227 206.048
L198.726 205.412
L199.234 204.788
L199.871 204.036
L200.522 203.302
L201.189 202.586
L201.871 201.887
L202.476 201.294
L203.093 200.713
L203.724 200.144
L204.368 199.585
L205.07 199.002
L205.788 198.43
L206.588 197.818
L207.408 197.217
L208.249 196.626
L209.109 196.044
L209.804 195.589
L210.511 195.139
L211.231 194.693
L211.964 194.249
L212.701 193.813
L213.45 193.379
L214.629 192.711
L215.836 192.044
L216.993 191.417
L218.173 190.787
L219.374 190.153
L220.596 189.511
L221.73 188.918
L222.878 188.317
L223.818 187.823
L224.766 187.322
L225.907 186.714
L227.058 186.095
L228.218 185.462
L229.386 184.816
L230.967 183.921
L232.555 182.997
L235.56 181.165
L240.712 177.697
L243.793 175.365
L245.596 173.886
L247.355 172.348
L248.478 171.31
L249.577 170.246
L251.121 168.662
L252.604 167.025
L253.429 166.058
L254.231 165.074
L255.009 164.074
L255.762 163.057
L256.352 162.223
L256.925 161.378
L257.665 160.228
L258.37 159.061
L259.201 157.583
L259.974 156.08
L260.688 154.556
L261.341 153.011
L261.717 152.035
L262.069 151.051
L262.395 150.062
L262.695 149.066
L262.943 148.168
L263.169 147.265
L263.404 146.216
L263.611 145.163
L263.789 144.105
L263.937 143.044
L264.069 141.846
L264.163 140.646
L264.22 139.443
L264.238 138.24
z
" style="fill:#ffa500;opacity:0.5;"/>
   </g>
   <g id="patch_4">
    <path clip-path="url(#pd365994b75)" d="
M138.238 138.24
L138.238 138.24
L138.238 138.24
L138.238 138.24
L138.238 138.24
L138.238 138.24
L138.238 138.24
L138.238 138.24
L138.238 138.24
L138.238 138.24
L138.238 138.24
L138.238 138.24
L138.238 138.24
L138.238 138.24
L138.238 138.24
L138.238 138.24
L138.238 138.24
L138.238 138.24
L138.238 138.24
L138.238 138.24
L138.238 138.24
L138.238 138.24
L138.238 138.24
L138.238 138.24
L138.238 138.24
L138.238 138.24
L138.238 138.24
L138.238 138.24
L138.238 138.24
L138.238 138.24
L138.238 138.24
L138.238 138.24
L138.238 138.24
L138.238 138.24
L138.238 138.24
L138.238 138.24
L138.238 138.24
L138.238 138.24
L138.238 138.24
L138.238 138.24
L138.238 138.24
L138.238 138.24
L138.238 138.24
L138.238 138.24
L138.238 138.24
L138.238 138.24
L138.238 138.24
L138.238 138.24
L138.238 138.24
L138.238 138.24
L138.238 138.24
L138.238 138.24
L138.238 138.24
L138.238 138.24
L138.238 138.24
L138.238 138.24
L138.238 138.24
L138.238 138.24
L138.238 138.24
L138.238 138.24
L138.238 138.24
L138.238 138.24
L138.238 138.24
L138.238 138.24
L138.238 138.24
L138.238 138.24
L138.238 138.24
L138.238 138.24
L138.238 138.24
L138.238 138.24
L138.238 138.24
L138.238 138.24
L138.238 138.24
L138.238 138.24
L138.238 138.24
L138.238 138.24
L138.238 138.24
L138.238 138.24
L138.238 138.24
L138.238 138.24
L138.238 138.24
L138.238 138.24
L138.238 138.24
L138.238 138.24
L138.238 138.24
L138.238 138.24
L138.238 138.24
L138.238 138.24
L138.238 138.24
L138.238 138.24
L138.238 138.24
L138.238 138.24
L138.238 138.24
L138.238 138.24
L138.238 138.24
L138.238 138.24
L138.238 138.24
L138.238 138.24
L138.238 138.24
L138.238 138.24
L138.238 138.24
L138.238 138.24
L138.238 138.24
L138.238 138.24
L138.238 138.24
L138.238 138.24
L138.238 138.24
L138.238 138.24
L138.238 138.24
L138.238 138.24
L138.238 138.24
L138.238 138.24
L138.238 138.24
L138.238 138.24
L138.238 138.24
L138.238 138.24
L138.238 138.24
L138.238 138.24
L138.238 138.24
L138.238 138.24
L138.238 138.24
L138.238 138.24
L138.238 138.24
L138.238 138.24
L138.238 138.24
L138.238 138.24
L138.238 138.24
L138.238 138.24
L138.238 138.24
L138.238 138.24
L138.238 138.24
L138.238 138.24
L138.238 138.24
L138.238 138.24
L138.238 138.24
L138.238 138.24
L138.238 138.24
L138.238 138.24
L138.238 138.24
L138.238 138.24
L138.238 138.24
L138.238 138.24
L138.238 138.24
L138.238 138.24
L138.238 138.24
L138.238 138.24
L138.238 138.24
L138.238 138.24
L138.238 138.24
L138.238 138.24
L138.238 138.24
L138.238 138.24
L138.238 138.24
L138.238 138.24
L138.238 138.24
L138.238 138.24
L138.238 138.24
L138.238 138.24
L138.238 138.24
L138.238 138.24
L138.238 138.24
L138.238 138.24
L138.238 138.24
L138.238 138.24
L138.238 138.24
L138.238 138.24
L138.238 138.24
L138.238 138.24
L138.238 138.24
L138.238 138.24
L138.238 138.24
L138.238 138.24
L138.238 138.24
L138.238 138.24
L138.238 138.24
L138.238 138.24
L138.238 138.24
L138.238 138.24
L138.238 138.24
L138.238 138.24
L138.238 138.24
L138.238 138.24
L138.238 138.24
L138.238 138.24
L138.238 138.24
L138.238 138.24
L138.238 138.24
L138.238 138.24
L138.238 138.24
L138.238 138.24
L138.238 138.24
L138.238 138.24
L138.238 138.24
L138.238 138.24
L138.238 138.24
L138.238 138.24
L138.238 138.24
L138.238 138.24
L138.238 138.24
L138.238 138.24
L192.238 138.24
L192.226 137.63
L192.188 137.02
L192.125 136.412
L192.037 135.806
L191.937 135.268
L191.818 134.732
L191.676 134.19
L191.515 133.651
L191.333 133.116
L191.133 132.586
L190.845 131.908
L190.527 131.24
L190.095 130.435
L189.62 129.648
L189.076 128.841
L188.553 128.139
L187.999 127.456
L187.202 126.567
L186.356 125.715
L185.667 125.079
L184.953 124.467
L184.117 123.802
L183.257 123.168
L181.332 121.9
L180.495 121.403
L179.127 120.65
L177.67 119.914
L176.5 119.364
L175.345 118.848
L174.531 118.499
L173.896 118.232
L173.27 117.973
L172.333 117.588
L171.422 117.215
L170.503 116.834
L170.051 116.642
L169.608 116.452
L169.175 116.261
L168.752 116.069
L168.087 115.754
L167.448 115.433
L166.881 115.129
L166.338 114.815
L165.781 114.465
L165.249 114.101
L164.817 113.776
L164.403 113.438
L163.967 113.048
L163.587 112.675
L163.224 112.286
L162.876 111.879
L162.542 111.453
L162.293 111.11
L162.05 110.755
L161.825 110.404
L161.604 110.041
L161.32 109.545
L161.044 109.028
L160.696 108.334
L160.355 107.608
L160.172 107.2
L159.989 106.782
L159.622 105.922
L159.397 105.38
L159.169 104.827
L158.878 104.116
L158.545 103.302
L158.2 102.471
L157.784 101.488
L157.345 100.488
L156.753 99.2005
L155.927 97.5388
L154.956 95.7776
L153.627 93.6761
L152.993 92.7834
L152.327 91.914
L151.467 90.8882
L150.693 90.0493
L149.885 89.251
L149.178 88.6137
L148.449 88.0111
L147.716 87.4587
L147.157 87.072
L146.589 86.707
L146.01 86.3645
L145.422 86.0454
L144.474 85.5903
L143.789 85.3045
L143.094 85.0513
L142.5 84.8628
L141.9 84.6987
L141.192 84.5376
L140.48 84.4109
L139.763 84.319
L139.045 84.262
L138.535 84.2429
L138.025 84.2415
L137.402 84.2637
L136.78 84.3122
L136.085 84.3978
L135.393 84.516
L134.706 84.6666
L134.023 84.8492
L133.431 85.0349
L132.844 85.2444
L131.985 85.5979
L131.141 86.001
L130.221 86.5063
L129.325 87.0683
L128.58 87.5899
L127.856 88.1483
L127.332 88.5844
L126.821 89.0385
L125.865 89.9653
L125.161 90.7178
L124.486 91.5004
L123.57 92.6663
L122.714 93.8758
L121.954 95.0554
L121.544 95.7394
L120.379 97.8699
L119.842 98.9544
L119.337 100.032
L119.189 100.36
L118.59 101.73
L118.305 102.403
L118.03 103.066
L117.747 103.753
L117.472 104.426
L117.262 104.937
L117.056 105.439
L116.758 106.152
L116.462 106.843
L116.138 107.572
L115.811 108.271
L115.478 108.94
L115.28 109.318
L115.078 109.685
L114.872 110.042
L114.661 110.389
L114.436 110.74
L114.206 111.079
L113.996 111.371
L113.78 111.655
L113.559 111.93
L113.331 112.198
L113.008 112.552
L112.672 112.893
L112.342 113.202
L112 113.501
L111.495 113.903
L110.962 114.287
L110.529 114.574
L110.078 114.851
L109.61 115.121
L109.125 115.383
L108.494 115.703
L108.117 115.885
L107.731 116.066
L106.933 116.423
L106.398 116.654
L105.85 116.886
L105.166 117.169
L104.395 117.486
L103.602 117.81
L102.944 118.081
L102.275 118.36
L100.896 118.952
L99.4876 119.589
L98.6702 119.98
L96.2166 121.269
L95.9334 121.431
L94.2755 122.449
L92.5965 123.623
L91.4212 124.553
L90.3022 125.543
L89.6522 126.176
L89.0295 126.83
L88.5481 127.374
L88.0871 127.932
L87.4581 128.761
L86.8776 129.616
L86.4787 130.267
L86.0161 131.11
L85.6032 131.971
L85.3375 132.602
L85.0993 133.24
L84.8893 133.885
L84.7079 134.535
L84.5015 135.462
L84.354 136.396
L84.2806 137.124
L84.2434 137.854
L84.2388 138.358
L84.2515 138.862
L84.2814 139.366
L84.3286 139.869
L84.4031 140.44
L84.4996 141.008
L84.6155 141.563
L84.7523 142.114
L84.9097 142.662
L85.0873 143.205
L85.3841 143.994
L85.7227 144.771
L85.9943 145.327
L86.3388 145.969
L86.7112 146.6
L87.1103 147.219
L87.5351 147.825
L87.947 148.371
L88.3787 148.905
L89.0315 149.652
L89.7204 150.373
L90.5152 151.135
L91.3455 151.864
L92.3395 152.662
L93.6004 153.578
L94.7313 154.323
L95.8835 155.02
L97.473 155.895
L99.0814 156.698
L99.461 156.878
L100.382 157.3
L101.293 157.701
L102.04 158.021
L102.775 158.329
L103.379 158.578
L103.973 158.822
L104.557 159.061
L105.129 159.295
L105.859 159.598
L106.567 159.898
L107.24 160.192
L107.957 160.519
L108.645 160.851
L109.01 161.037
L109.366 161.225
L109.802 161.468
L110.223 161.716
L110.629 161.971
L111.022 162.234
L111.306 162.436
L111.712 162.744
L112.101 163.065
L112.463 163.388
L112.811 163.724
L113.145 164.074
L113.465 164.438
L113.75 164.787
L114.008 165.125
L114.258 165.476
L114.501 165.839
L114.737 166.214
L115.073 166.787
L115.399 167.386
L115.73 168.042
L116.054 168.726
L116.321 169.316
L116.586 169.924
L116.757 170.326
L117.137 171.237
L117.524 172.182
L117.78 172.808
L118.043 173.445
L118.349 174.182
L118.667 174.93
L119.203 176.152
L119.672 177.169
L120.168 178.193
L120.876 179.555
L121.676 180.965
L122.601 182.435
L123.606 183.862
L124.449 184.934
L125.141 185.739
L125.862 186.512
L126.508 187.149
L127.162 187.748
L127.837 188.316
L128.576 188.887
L129.337 189.42
L130.23 189.979
L131.146 190.481
L131.903 190.845
L132.673 191.169
L133.542 191.482
L134.423 191.742
L135.332 191.952
L135.991 192.068
L136.652 192.154
L137.316 192.211
L137.981 192.238
L138.837 192.228
L139.519 192.184
L140.198 192.109
L140.875 192.003
L141.548 191.866
L142.041 191.745
L142.531 191.608
L143.058 191.441
L143.581 191.255
L144.099 191.05
L144.612 190.828
L145.108 190.593
L145.598 190.342
L146.081 190.074
L146.559 189.791
L147.041 189.485
L147.516 189.163
L148.189 188.67
L148.845 188.148
L149.712 187.39
L150.543 186.584
L151.093 186.007
L151.625 185.411
L152.381 184.497
L153.1 183.551
L154.145 182.024
L154.619 181.266
L155.837 179.112
L156.48 177.845
L157.331 176.025
L157.85 174.837
L158.252 173.884
L158.637 172.952
L158.998 172.072
L159.226 171.515
L159.451 170.969
L159.674 170.435
L159.896 169.913
L160.102 169.439
L160.308 168.976
L160.664 168.214
L160.844 167.845
L161.026 167.486
L161.209 167.14
L161.394 166.803
L161.583 166.474
L161.776 166.154
L161.977 165.838
L162.182 165.53
L162.375 165.255
L162.572 164.987
L162.775 164.726
L162.983 164.472
L163.372 164.031
L163.78 163.611
L164.021 163.381
L164.269 163.158
L164.523 162.94
L164.785 162.729
L165.136 162.462
L165.5 162.203
L165.953 161.903
L166.548 161.541
L167.172 161.192
L167.846 160.844
L168.552 160.504
L169.032 160.284
L169.525 160.065
L170.031 159.846
L170.549 159.627
L170.77 159.535
L171.376 159.284
L171.996 159.03
L172.629 158.771
L173.275 158.505
L174.044 158.186
L174.827 157.855
L175.914 157.381
L177.456 156.67
L179.028 155.882
L179.738 155.502
L182.305 153.962
L183.78 152.932
L185.003 151.971
L185.788 151.292
L186.543 150.584
L187.334 149.773
L188.079 148.928
L188.583 148.303
L189.06 147.661
L189.39 147.184
L189.704 146.699
L190.019 146.176
L190.316 145.644
L190.593 145.106
L190.85 144.56
L191.166 143.809
L191.443 143.048
L191.716 142.144
L191.887 141.45
L192.024 140.751
L192.117 140.126
L192.185 139.498
L192.225 138.87
L192.238 138.24
z
" style="fill:#ffa500;opacity:0.5;"/>
   </g>
   <g id="line2d_1">
    <path clip-path="url(#pd365994b75)" d="
M264.238 138.24
L264.093 134.904
L263.658 131.581
L263.067 128.798
L262.277 126.051
L261.139 122.975
L259.84 120.129
L257.952 116.717
L255.965 113.705
L253.902 110.997
L251.757 108.506
L249.555 106.213
L247.189 103.982
L243.578 100.945
L239.509 97.9296
L233.867 94.2679
L228.83 91.3548
L220.934 87.1451
L213.747 83.2709
L209.719 80.8358
L207.028 78.9876
L204.09 76.6557
L201.548 74.2661
L199.499 72.0091
L197.408 69.3374
L195.69 66.8318
L193.376 63.0252
L190.48 57.7278
L184.496 46.5264
L181.96 42.1997
L181.049 40.7372
L176.48 34.1234
L173.194 30.078
L170.669 27.3337
L168.051 24.7931
L165.149 22.3084
L163.441 20.997
L160.276 18.8445
L157.836 17.4157
L155.626 16.2847
L152.808 15.0577
L149.676 13.9646
L146.882 13.2201
L143.616 12.6178
L140.774 12.3238
L138.145 12.24
L135.463 12.3404
L132.737 12.6355
L130.227 13.0812
L126.774 13.9727
L124.416 14.7714
L121.022 16.2035
L118.881 17.2851
L115.338 19.3968
L112.8 21.1717
L109.594 23.7523
L106.861 26.276
L103.555 29.768
L100.989 32.8416
L98.1846 36.6028
L94.3745 42.4333
L91.2021 47.9218
L86.4643 56.8402
L82.8533 63.4545
L80.4023 67.4172
L78.2608 70.4172
L76.0855 73.0331
L74.1176 75.0736
L71.8747 77.0914
L69.5758 78.8944
L66.7768 80.8232
L63.6441 82.7436
L59.2607 85.182
L46.063 92.2431
L43.2171 93.9018
L39.3636 96.3116
L34.7068 99.5584
L30.4224 102.985
L28.6001 104.608
L25.8937 107.254
L23.6398 109.724
L21.4633 112.412
L19.5629 115.086
L17.75 118.038
L16.2195 120.986
L14.8797 124.126
L13.9212 126.94
L13.1726 129.8
L12.5836 133.099
L12.3013 136.042
L12.2449 138.951
L12.3661 141.369
L12.6806 144.056
L13.3406 147.402
L14.2266 150.511
L15.4659 153.812
L16.7641 156.604
L18.5184 159.751
L20.6991 163.035
L22.9697 165.964
L24.829 168.094
L27.3089 170.648
L29.9258 173.064
L33.5218 176.022
L36.0276 177.886
L42.1017 181.902
L47.5106 185.05
L54.8292 188.961
L62.8047 193.252
L66.8471 195.702
L69.6164 197.615
L72.3595 199.801
L74.6314 201.912
L76.7741 204.231
L78.8345 206.823
L80.5982 209.359
L83.0125 213.301
L85.915 218.598
L91.9028 229.816
L94.0064 233.438
L95.4197 235.731
L99.2358 241.338
L102.367 245.33
L105.798 249.136
L108.616 251.86
L111.734 254.494
L114.381 256.44
L117.412 258.369
L120.664 260.105
L123.815 261.479
L126.567 262.443
L129.707 263.285
L132.466 263.804
L135.247 264.123
L138.253 264.24
L141.395 264.11
L144.646 263.703
L147.063 263.218
L150.022 262.408
L153.091 261.309
L156.549 259.741
L159.438 258.148
L162.181 256.381
L164.272 254.858
L166.601 252.97
L169.487 250.33
L172.341 247.363
L175.103 244.12
L176.667 242.11
L178.835 239.098
L182.318 233.69
L185.033 228.995
L189.528 220.563
L193.041 214.042
L195.473 209.985
L197.735 206.698
L199.871 204.036
L201.871 201.887
L204.368 199.585
L206.588 197.818
L209.804 195.589
L213.45 193.379
L218.173 190.787
L230.967 183.921
L235.56 181.165
L240.712 177.697
L245.596 173.886
L248.478 171.31
L251.121 168.662
L254.231 165.074
L256.352 162.223
L258.37 159.061
L259.974 156.08
L261.341 153.011
L262.395 150.062
L263.169 147.265
L263.789 144.105
L264.163 140.646
L264.238 138.24
L264.238 138.24" style="fill:none;stroke:#000000;stroke-width:2.0;"/>
   </g>
   <g id="line2d_2">
    <path clip-path="url(#pd365994b75)" d="
M192.238 138.24
L192.125 136.412
L191.818 134.732
L191.333 133.116
L190.527 131.24
L189.62 129.648
L188.553 128.139
L187.202 126.567
L185.667 125.079
L184.117 123.802
L183.257 123.168
L180.495 121.403
L177.67 119.914
L173.896 118.232
L168.087 115.754
L166.338 114.815
L164.817 113.776
L163.587 112.675
L162.542 111.453
L161.604 110.041
L160.696 108.334
L159.169 104.827
L156.753 99.2005
L154.956 95.7776
L152.993 92.7834
L151.467 90.8882
L149.885 89.251
L148.449 88.0111
L146.589 86.707
L145.422 86.0454
L143.789 85.3045
L141.9 84.6987
L139.763 84.319
L138.025 84.2415
L136.085 84.3978
L134.023 84.8492
L131.985 85.5979
L130.221 86.5063
L128.58 87.5899
L126.821 89.0385
L125.161 90.7178
L123.57 92.6663
L121.954 95.0554
L120.379 97.8699
L118.59 101.73
L115.28 109.318
L114.206 111.079
L113.331 112.198
L112 113.501
L110.529 114.574
L108.494 115.703
L105.85 116.886
L98.6702 119.98
L95.9334 121.431
L94.2755 122.449
L91.4212 124.553
L89.6522 126.176
L88.0871 127.932
L86.8776 129.616
L86.0161 131.11
L85.0993 133.24
L84.7079 134.535
L84.354 136.396
L84.2388 138.358
L84.3286 139.869
L84.6155 141.563
L85.0873 143.205
L85.9943 145.327
L87.1103 147.219
L88.3787 148.905
L89.7204 150.373
L91.3455 151.864
L93.6004 153.578
L95.8835 155.02
L99.461 156.878
L103.379 158.578
L108.645 160.851
L110.629 161.971
L112.101 163.065
L113.145 164.074
L114.258 165.476
L115.073 166.787
L116.321 169.316
L120.876 179.555
L122.601 182.435
L124.449 184.934
L125.862 186.512
L127.837 188.316
L129.337 189.42
L131.146 190.481
L132.673 191.169
L134.423 191.742
L136.652 192.154
L137.981 192.238
L140.198 192.109
L142.041 191.745
L143.581 191.255
L145.598 190.342
L147.516 189.163
L148.845 188.148
L150.543 186.584
L152.381 184.497
L154.145 182.024
L155.837 179.112
L157.331 176.025
L161.583 166.474
L162.572 164.987
L163.78 163.611
L165.136 162.462
L166.548 161.541
L168.552 160.504
L171.996 159.03
L175.914 157.381
L179.738 155.502
L182.305 153.962
L185.003 151.971
L186.543 150.584
L188.079 148.928
L189.39 147.184
L190.316 145.644
L191.166 143.809
L191.716 142.144
L192.117 140.126
L192.238 138.24
L192.238 138.24" style="fill:none;stroke:#000000;stroke-width:2.0;"/>
   </g>
   <g id="matplotlib.axis_1">
    <g id="xtick_1">
     <g id="line2d_3">
      <defs>
       <path d="
M0 0
L0 -4" id="mcb557df647" style="stroke:#000000;stroke-linecap:butt;stroke-width:0.5;"/>
      </defs>
      <g>
       <use style="stroke:#000000;stroke-linecap:butt;stroke-width:0.5;" x="30.2382994779" xlink:href="#mcb557df647" y="138.239944786"/>
      </g>
     </g>
     <g id="text_1">
      <!-- -6 -->
      <defs>
       <path d="
M33.0156 40.375
Q26.375 40.375 22.4844 35.8281
Q18.6094 31.2969 18.6094 23.3906
Q18.6094 15.5312 22.4844 10.9531
Q26.375 6.39062 33.0156 6.39062
Q39.6562 6.39062 43.5312 10.9531
Q47.4062 15.5312 47.4062 23.3906
Q47.4062 31.2969 43.5312 35.8281
Q39.6562 40.375 33.0156 40.375
M52.5938 71.2969
L52.5938 62.3125
Q48.875 64.0625 45.0938 64.9844
Q41.3125 65.9219 37.5938 65.9219
Q27.8281 65.9219 22.6719 59.3281
Q17.5312 52.7344 16.7969 39.4062
Q19.6719 43.6562 24.0156 45.9219
Q28.375 48.1875 33.5938 48.1875
Q44.5781 48.1875 50.9531 41.5156
Q57.3281 34.8594 57.3281 23.3906
Q57.3281 12.1562 50.6875 5.35938
Q44.0469 -1.42188 33.0156 -1.42188
Q20.3594 -1.42188 13.6719 8.26562
Q6.98438 17.9688 6.98438 36.375
Q6.98438 53.6562 15.1875 63.9375
Q23.3906 74.2188 37.2031 74.2188
Q40.9219 74.2188 44.7031 73.4844
Q48.4844 72.75 52.5938 71.2969" id="BitstreamVeraSans-Roman-36"/>
       <path d="
M4.89062 31.3906
L31.2031 31.3906
L31.2031 23.3906
L4.89062 23.3906
z
" id="BitstreamVeraSans-Roman-2d"/>
      </defs>
      <g transform="translate(25.8125182279 149.661819786)scale(0.1 -0.1)">
       <use xlink:href="#BitstreamVeraSans-Roman-2d"/>
       <use x="36.083984375" xlink:href="#BitstreamVeraSans-Roman-36"/>
      </g>
     </g>
    </g>
    <g id="xtick_2">
     <g id="line2d_4">
      <g>
       <use style="stroke:#000000;stroke-linecap:butt;stroke-width:0.5;" x="66.2383160696" xlink:href="#mcb557df647" y="138.239944786"/>
      </g>
     </g>
     <g id="text_2">
      <!-- -4 -->
      <defs>
       <path d="
M37.7969 64.3125
L12.8906 25.3906
L37.7969 25.3906
z

M35.2031 72.9062
L47.6094 72.9062
L47.6094 25.3906
L58.0156 25.3906
L58.0156 17.1875
L47.6094 17.1875
L47.6094 0
L37.7969 0
L37.7969 17.1875
L4.89062 17.1875
L4.89062 26.7031
z
" id="BitstreamVeraSans-Roman-34"/>
      </defs>
      <g transform="translate(61.7781598196 149.530569786)scale(0.1 -0.1)">
       <use xlink:href="#BitstreamVeraSans-Roman-2d"/>
       <use x="36.083984375" xlink:href="#BitstreamVeraSans-Roman-34"/>
      </g>
     </g>
    </g>
    <g id="xtick_3">
     <g id="line2d_5">
      <g>
       <use style="stroke:#000000;stroke-linecap:butt;stroke-width:0.5;" x="102.238332661" xlink:href="#mcb557df647" y="138.239944786"/>
      </g>
     </g>
     <g id="text_3">
      <!-- -2 -->
      <defs>
       <path d="
M19.1875 8.29688
L53.6094 8.29688
L53.6094 0
L7.32812 0
L7.32812 8.29688
Q12.9375 14.1094 22.625 23.8906
Q32.3281 33.6875 34.8125 36.5312
Q39.5469 41.8438 41.4219 45.5312
Q43.3125 49.2188 43.3125 52.7812
Q43.3125 58.5938 39.2344 62.25
Q35.1562 65.9219 28.6094 65.9219
Q23.9688 65.9219 18.8125 64.3125
Q13.6719 62.7031 7.8125 59.4219
L7.8125 69.3906
Q13.7656 71.7812 18.9375 73
Q24.125 74.2188 28.4219 74.2188
Q39.75 74.2188 46.4844 68.5469
Q53.2188 62.8906 53.2188 53.4219
Q53.2188 48.9219 51.5312 44.8906
Q49.8594 40.875 45.4062 35.4062
Q44.1875 33.9844 37.6406 27.2188
Q31.1094 20.4531 19.1875 8.29688" id="BitstreamVeraSans-Roman-32"/>
      </defs>
      <g transform="translate(97.9984889112 149.661819786)scale(0.1 -0.1)">
       <use xlink:href="#BitstreamVeraSans-Roman-2d"/>
       <use x="36.083984375" xlink:href="#BitstreamVeraSans-Roman-32"/>
      </g>
     </g>
    </g>
    <g id="xtick_4">
     <g id="line2d_6">
      <g>
       <use style="stroke:#000000;stroke-linecap:butt;stroke-width:0.5;" x="138.238349253" xlink:href="#mcb557df647" y="138.239944786"/>
      </g>
     </g>
    </g>
    <g id="xtick_5">
     <g id="line2d_7">
      <g>
       <use style="stroke:#000000;stroke-linecap:butt;stroke-width:0.5;" x="174.238365845" xlink:href="#mcb557df647" y="138.239944786"/>
      </g>
     </g>
     <g id="text_4">
      <!-- 2 -->
      <g transform="translate(171.924303345 149.661819786)scale(0.1 -0.1)">
       <use xlink:href="#BitstreamVeraSans-Roman-32"/>
      </g>
     </g>
    </g>
    <g id="xtick_6">
     <g id="line2d_8">
      <g>
       <use style="stroke:#000000;stroke-linecap:butt;stroke-width:0.5;" x="210.238382436" xlink:href="#mcb557df647" y="138.239944786"/>
      </g>
     </g>
     <g id="text_5">
      <!-- 4 -->
      <g transform="translate(207.582132436 149.530569786)scale(0.1 -0.1)">
       <use xlink:href="#BitstreamVeraSans-Roman-34"/>
      </g>
     </g>
    </g>
    <g id="xtick_7">
     <g id="line2d_9">
      <g>
       <use style="stroke:#000000;stroke-linecap:butt;stroke-width:0.5;" x="246.238399028" xlink:href="#mcb557df647" y="138.239944786"/>
      </g>
     </g>
     <g id="text_6">
      <!-- 6 -->
      <g transform="translate(243.721211528 149.661819786)scale(0.1 -0.1)">
       <use xlink:href="#BitstreamVeraSans-Roman-36"/>
      </g>
     </g>
    </g>
    <g id="xtick_8">
     <g id="line2d_10">
      <defs>
       <path d="
M0 0
L0 -2" id="m6f8f3139b3" style="stroke:#000000;stroke-linecap:butt;stroke-width:0.5;"/>
      </defs>
      <g>
       <use style="stroke:#000000;stroke-linecap:butt;stroke-width:0.5;" x="12.2382911821" xlink:href="#m6f8f3139b3" y="138.239944786"/>
      </g>
     </g>
    </g>
    <g id="xtick_9">
     <g id="line2d_11">
      <g>
       <use style="stroke:#000000;stroke-linecap:butt;stroke-width:0.5;" x="21.23829533" xlink:href="#m6f8f3139b3" y="138.239944786"/>
      </g>
     </g>
    </g>
    <g id="xtick_10">
     <g id="line2d_12">
      <g>
       <use style="stroke:#000000;stroke-linecap:butt;stroke-width:0.5;" x="39.2383036259" xlink:href="#m6f8f3139b3" y="138.239944786"/>
      </g>
     </g>
    </g>
    <g id="xtick_11">
     <g id="line2d_13">
      <g>
       <use style="stroke:#000000;stroke-linecap:butt;stroke-width:0.5;" x="48.2383077738" xlink:href="#m6f8f3139b3" y="138.239944786"/>
      </g>
     </g>
    </g>
    <g id="xtick_12">
     <g id="line2d_14">
      <g>
       <use style="stroke:#000000;stroke-linecap:butt;stroke-width:0.5;" x="57.2383119217" xlink:href="#m6f8f3139b3" y="138.239944786"/>
      </g>
     </g>
    </g>
    <g id="xtick_13">
     <g id="line2d_15">
      <g>
       <use style="stroke:#000000;stroke-linecap:butt;stroke-width:0.5;" x="75.2383202175" xlink:href="#m6f8f3139b3" y="138.239944786"/>
      </g>
     </g>
    </g>
    <g id="xtick_14">
     <g id="line2d_16">
      <g>
       <use style="stroke:#000000;stroke-linecap:butt;stroke-width:0.5;" x="84.2383243654" xlink:href="#m6f8f3139b3" y="138.239944786"/>
      </g>
     </g>
    </g>
    <g id="xtick_15">
     <g id="line2d_17">
      <g>
       <use style="stroke:#000000;stroke-linecap:butt;stroke-width:0.5;" x="93.2383285133" xlink:href="#m6f8f3139b3" y="138.239944786"/>
      </g>
     </g>
    </g>
    <g id="xtick_16">
     <g id="line2d_18">
      <g>
       <use style="stroke:#000000;stroke-linecap:butt;stroke-width:0.5;" x="111.238336809" xlink:href="#m6f8f3139b3" y="138.239944786"/>
      </g>
     </g>
    </g>
    <g id="xtick_17">
     <g id="line2d_19">
      <g>
       <use style="stroke:#000000;stroke-linecap:butt;stroke-width:0.5;" x="120.238340957" xlink:href="#m6f8f3139b3" y="138.239944786"/>
      </g>
     </g>
    </g>
    <g id="xtick_18">
     <g id="line2d_20">
      <g>
       <use style="stroke:#000000;stroke-linecap:butt;stroke-width:0.5;" x="129.238345105" xlink:href="#m6f8f3139b3" y="138.239944786"/>
      </g>
     </g>
    </g>
    <g id="xtick_19">
     <g id="line2d_21">
      <g>
       <use style="stroke:#000000;stroke-linecap:butt;stroke-width:0.5;" x="147.238353401" xlink:href="#m6f8f3139b3" y="138.239944786"/>
      </g>
     </g>
    </g>
    <g id="xtick_20">
     <g id="line2d_22">
      <g>
       <use style="stroke:#000000;stroke-linecap:butt;stroke-width:0.5;" x="156.238357549" xlink:href="#m6f8f3139b3" y="138.239944786"/>
      </g>
     </g>
    </g>
    <g id="xtick_21">
     <g id="line2d_23">
      <g>
       <use style="stroke:#000000;stroke-linecap:butt;stroke-width:0.5;" x="165.238361697" xlink:href="#m6f8f3139b3" y="138.239944786"/>
      </g>
     </g>
    </g>
    <g id="xtick_22">
     <g id="line2d_24">
      <g>
       <use style="stroke:#000000;stroke-linecap:butt;stroke-width:0.5;" x="183.238369992" xlink:href="#m6f8f3139b3" y="138.239944786"/>
      </g>
     </g>
    </g>
    <g id="xtick_23">
     <g id="line2d_25">
      <g>
       <use style="stroke:#000000;stroke-linecap:butt;stroke-width:0.5;" x="192.23837414" xlink:href="#m6f8f3139b3" y="138.239944786"/>
      </g>
     </g>
    </g>
    <g id="xtick_24">
     <g id="line2d_26">
      <g>
       <use style="stroke:#000000;stroke-linecap:butt;stroke-width:0.5;" x="201.238378288" xlink:href="#m6f8f3139b3" y="138.239944786"/>
      </g>
     </g>
    </g>
    <g id="xtick_25">
     <g id="line2d_27">
      <g>
       <use style="stroke:#000000;stroke-linecap:butt;stroke-width:0.5;" x="219.238386584" xlink:href="#m6f8f3139b3" y="138.239944786"/>
      </g>
     </g>
    </g>
    <g id="xtick_26">
     <g id="line2d_28">
      <g>
       <use style="stroke:#000000;stroke-linecap:butt;stroke-width:0.5;" x="228.238390732" xlink:href="#m6f8f3139b3" y="138.239944786"/>
      </g>
     </g>
    </g>
    <g id="xtick_27">
     <g id="line2d_29">
      <g>
       <use style="stroke:#000000;stroke-linecap:butt;stroke-width:0.5;" x="237.23839488" xlink:href="#m6f8f3139b3" y="138.239944786"/>
      </g>
     </g>
    </g>
    <g id="xtick_28">
     <g id="line2d_30">
      <g>
       <use style="stroke:#000000;stroke-linecap:butt;stroke-width:0.5;" x="255.238403176" xlink:href="#m6f8f3139b3" y="138.239944786"/>
      </g>
     </g>
    </g>
   </g>
   <g id="matplotlib.axis_2">
    <g id="ytick_1">
     <g id="line2d_31">
      <defs>
       <path d="
M0 0
L4 0" id="mc8fcea1516" style="stroke:#000000;stroke-linecap:butt;stroke-width:0.5;"/>
      </defs>
      <g>
       <use style="stroke:#000000;stroke-linecap:butt;stroke-width:0.5;" x="138.238349253" xlink:href="#mc8fcea1516" y="246.239994561"/>
      </g>
     </g>
     <g id="text_7">
      <!-- -6 -->
      <g transform="translate(125.386786753 249.879838311)scale(0.1 -0.1)">
       <use xlink:href="#BitstreamVeraSans-Roman-2d"/>
       <use x="36.083984375" xlink:href="#BitstreamVeraSans-Roman-36"/>
      </g>
     </g>
    </g>
    <g id="ytick_2">
     <g id="line2d_32">
      <g>
       <use style="stroke:#000000;stroke-linecap:butt;stroke-width:0.5;" x="138.238349253" xlink:href="#mc8fcea1516" y="210.23997797"/>
      </g>
     </g>
     <g id="text_8">
      <!-- -4 -->
      <g transform="translate(125.318036753 213.88529047)scale(0.1 -0.1)">
       <use xlink:href="#BitstreamVeraSans-Roman-2d"/>
       <use x="36.083984375" xlink:href="#BitstreamVeraSans-Roman-34"/>
      </g>
     </g>
    </g>
    <g id="ytick_3">
     <g id="line2d_33">
      <g>
       <use style="stroke:#000000;stroke-linecap:butt;stroke-width:0.5;" x="138.238349253" xlink:href="#mc8fcea1516" y="174.239961378"/>
      </g>
     </g>
     <g id="text_9">
      <!-- -2 -->
      <g transform="translate(125.758661753 177.950898878)scale(0.1 -0.1)">
       <use xlink:href="#BitstreamVeraSans-Roman-2d"/>
       <use x="36.083984375" xlink:href="#BitstreamVeraSans-Roman-32"/>
      </g>
     </g>
    </g>
    <g id="ytick_4">
     <g id="line2d_34">
      <g>
       <use style="stroke:#000000;stroke-linecap:butt;stroke-width:0.5;" x="138.238349253" xlink:href="#mc8fcea1516" y="138.239944786"/>
      </g>
     </g>
    </g>
    <g id="ytick_5">
     <g id="line2d_35">
      <g>
       <use style="stroke:#000000;stroke-linecap:butt;stroke-width:0.5;" x="138.238349253" xlink:href="#mc8fcea1516" y="102.239928195"/>
      </g>
     </g>
     <g id="text_10">
      <!-- 2 -->
      <g transform="translate(129.610224253 105.950865695)scale(0.1 -0.1)">
       <use xlink:href="#BitstreamVeraSans-Roman-32"/>
      </g>
     </g>
    </g>
    <g id="ytick_6">
     <g id="line2d_36">
      <g>
       <use style="stroke:#000000;stroke-linecap:butt;stroke-width:0.5;" x="138.238349253" xlink:href="#mc8fcea1516" y="66.2399116031"/>
      </g>
     </g>
     <g id="text_11">
      <!-- 4 -->
      <g transform="translate(128.925849253 69.8852241031)scale(0.1 -0.1)">
       <use xlink:href="#BitstreamVeraSans-Roman-34"/>
      </g>
     </g>
    </g>
    <g id="ytick_7">
     <g id="line2d_37">
      <g>
       <use style="stroke:#000000;stroke-linecap:butt;stroke-width:0.5;" x="138.238349253" xlink:href="#mc8fcea1516" y="30.2398950115"/>
      </g>
     </g>
     <g id="text_12">
      <!-- 6 -->
      <g transform="translate(129.203974253 33.8797387615)scale(0.1 -0.1)">
       <use xlink:href="#BitstreamVeraSans-Roman-36"/>
      </g>
     </g>
    </g>
    <g id="ytick_8">
     <g id="line2d_38">
      <defs>
       <path d="
M0 0
L2 0" id="m57a2c8792a" style="stroke:#000000;stroke-linecap:butt;stroke-width:0.5;"/>
      </defs>
      <g>
       <use style="stroke:#000000;stroke-linecap:butt;stroke-width:0.5;" x="138.238349253" xlink:href="#m57a2c8792a" y="264.240002857"/>
      </g>
     </g>
    </g>
    <g id="ytick_9">
     <g id="line2d_39">
      <g>
       <use style="stroke:#000000;stroke-linecap:butt;stroke-width:0.5;" x="138.238349253" xlink:href="#m57a2c8792a" y="255.239998709"/>
      </g>
     </g>
    </g>
    <g id="ytick_10">
     <g id="line2d_40">
      <g>
       <use style="stroke:#000000;stroke-linecap:butt;stroke-width:0.5;" x="138.238349253" xlink:href="#m57a2c8792a" y="237.239990413"/>
      </g>
     </g>
    </g>
    <g id="ytick_11">
     <g id="line2d_41">
      <g>
       <use style="stroke:#000000;stroke-linecap:butt;stroke-width:0.5;" x="138.238349253" xlink:href="#m57a2c8792a" y="228.239986266"/>
      </g>
     </g>
    </g>
    <g id="ytick_12">
     <g id="line2d_42">
      <g>
       <use style="stroke:#000000;stroke-linecap:butt;stroke-width:0.5;" x="138.238349253" xlink:href="#m57a2c8792a" y="219.239982118"/>
      </g>
     </g>
    </g>
    <g id="ytick_13">
     <g id="line2d_43">
      <g>
       <use style="stroke:#000000;stroke-linecap:butt;stroke-width:0.5;" x="138.238349253" xlink:href="#m57a2c8792a" y="201.239973822"/>
      </g>
     </g>
    </g>
    <g id="ytick_14">
     <g id="line2d_44">
      <g>
       <use style="stroke:#000000;stroke-linecap:butt;stroke-width:0.5;" x="138.238349253" xlink:href="#m57a2c8792a" y="192.239969674"/>
      </g>
     </g>
    </g>
    <g id="ytick_15">
     <g id="line2d_45">
      <g>
       <use style="stroke:#000000;stroke-linecap:butt;stroke-width:0.5;" x="138.238349253" xlink:href="#m57a2c8792a" y="183.239965526"/>
      </g>
     </g>
    </g>
    <g id="ytick_16">
     <g id="line2d_46">
      <g>
       <use style="stroke:#000000;stroke-linecap:butt;stroke-width:0.5;" x="138.238349253" xlink:href="#m57a2c8792a" y="165.23995723"/>
      </g>
     </g>
    </g>
    <g id="ytick_17">
     <g id="line2d_47">
      <g>
       <use style="stroke:#000000;stroke-linecap:butt;stroke-width:0.5;" x="138.238349253" xlink:href="#m57a2c8792a" y="156.239953082"/>
      </g>
     </g>
    </g>
    <g id="ytick_18">
     <g id="line2d_48">
      <g>
       <use style="stroke:#000000;stroke-linecap:butt;stroke-width:0.5;" x="138.238349253" xlink:href="#m57a2c8792a" y="147.239948934"/>
      </g>
     </g>
    </g>
    <g id="ytick_19">
     <g id="line2d_49">
      <g>
       <use style="stroke:#000000;stroke-linecap:butt;stroke-width:0.5;" x="138.238349253" xlink:href="#m57a2c8792a" y="129.239940639"/>
      </g>
     </g>
    </g>
    <g id="ytick_20">
     <g id="line2d_50">
      <g>
       <use style="stroke:#000000;stroke-linecap:butt;stroke-width:0.5;" x="138.238349253" xlink:href="#m57a2c8792a" y="120.239936491"/>
      </g>
     </g>
    </g>
    <g id="ytick_21">
     <g id="line2d_51">
      <g>
       <use style="stroke:#000000;stroke-linecap:butt;stroke-width:0.5;" x="138.238349253" xlink:href="#m57a2c8792a" y="111.239932343"/>
      </g>
     </g>
    </g>
    <g id="ytick_22">
     <g id="line2d_52">
      <g>
       <use style="stroke:#000000;stroke-linecap:butt;stroke-width:0.5;" x="138.238349253" xlink:href="#m57a2c8792a" y="93.2399240469"/>
      </g>
     </g>
    </g>
    <g id="ytick_23">
     <g id="line2d_53">
      <g>
       <use style="stroke:#000000;stroke-linecap:butt;stroke-width:0.5;" x="138.238349253" xlink:href="#m57a2c8792a" y="84.239919899"/>
      </g>
     </g>
    </g>
    <g id="ytick_24">
     <g id="line2d_54">
      <g>
       <use style="stroke:#000000;stroke-linecap:butt;stroke-width:0.5;" x="138.238349253" xlink:href="#m57a2c8792a" y="75.2399157511"/>
      </g>
     </g>
    </g>
    <g id="ytick_25">
     <g id="line2d_55">
      <g>
       <use style="stroke:#000000;stroke-linecap:butt;stroke-width:0.5;" x="138.238349253" xlink:href="#m57a2c8792a" y="57.2399074552"/>
      </g>
     </g>
    </g>
    <g id="ytick_26">
     <g id="line2d_56">
      <g>
       <use style="stroke:#000000;stroke-linecap:butt;stroke-width:0.5;" x="138.238349253" xlink:href="#m57a2c8792a" y="48.2399033073"/>
      </g>
     </g>
    </g>
    <g id="ytick_27">
     <g id="line2d_57">
      <g>
       <use style="stroke:#000000;stroke-linecap:butt;stroke-width:0.5;" x="138.238349253" xlink:href="#m57a2c8792a" y="39.2398991594"/>
      </g>
     </g>
    </g>
    <g id="ytick_28">
     <g id="line2d_58">
      <g>
       <use style="stroke:#000000;stroke-linecap:butt;stroke-width:0.5;" x="138.238349253" xlink:href="#m57a2c8792a" y="21.2398908636"/>
      </g>
     </g>
    </g>
   </g>
   <g id="patch_5">
    <path d="
M7.2 138.24
L269.278 138.24" style="fill:none;stroke:#000000;stroke-width:0.8;"/>
   </g>
   <g id="patch_6">
    <path d="
M138.238 269.28
L138.238 7.2" style="fill:none;stroke:#000000;stroke-width:0.8;"/>
   </g>
  </g>
 </g>
 <defs>
  <clipPath id="pd365994b75">
   <rect height="262.08" width="262.078376095" x="7.2" y="7.2"/>
  </clipPath>
 </defs>
</svg>
