<?xml version="1.0" encoding="utf-8" standalone="no"?>
<!DOCTYPE svg PUBLIC "-//W3C//DTD SVG 1.1//EN"
  "http://www.w3.org/Graphics/SVG/1.1/DTD/svg11.dtd">
<!-- Created with matplotlib (http://matplotlib.org/) -->
<svg height="273pt" version="1.1" viewBox="0 0 229 273" width="229pt" xmlns="http://www.w3.org/2000/svg" xmlns:xlink="http://www.w3.org/1999/xlink">
 <defs>
  <style type="text/css">
*{stroke-linecap:square;stroke-linejoin:round;}
  </style>
 </defs>
 <g id="figure_1">
  <g id="patch_1">
   <path d="
M0 273.78
L229.016 273.78
L229.016 0
L0 0
z
" style="fill:#ffffff;"/>
  </g>
  <g id="axes_1">
   <g id="patch_2">
    <path d="
M7.2 266.58
L221.816 266.58
L221.816 21.2
L7.2 21.2
z
" style="fill:#ffffff;"/>
   </g>
   <g id="patch_3">
    <path clip-path="url(#p3252448e88)" d="
M24.2176 143.89
L24.2176 143.89
L24.2176 143.89
L24.2176 143.89
L24.2176 143.89
L24.2176 143.89
L24.2176 143.89
L24.2176 143.89
L24.2176 143.89
L24.2176 143.89
L24.2176 143.89
L24.2176 143.89
L24.2176 143.89
L24.2176 143.89
L24.2176 143.89
L24.2176 143.89
L24.2176 143.89
L24.2176 143.89
L24.2176 143.89
L24.2176 143.89
L24.2176 143.89
L24.2176 143.89
L24.2176 143.89
L24.2176 143.89
L24.2176 143.89
L24.2176 143.89
L24.2176 143.89
L24.2176 143.89
L24.2176 143.89
L24.2176 143.89
L24.2176 143.89
L24.2176 143.89
L24.2176 143.89
L24.2176 143.89
L24.2176 143.89
L24.2176 143.89
L24.2176 143.89
L24.2176 143.89
L24.2176 143.89
L24.2176 143.89
L24.2176 143.89
L24.2176 143.89
L24.2176 143.89
L24.2176 143.89
L24.2176 143.89
L24.2176 143.89
L24.2176 143.89
L24.2176 143.89
L24.2176 143.89
L24.2176 143.89
L24.2176 143.89
L24.2176 143.89
L24.2176 143.89
L24.2176 143.89
L24.2176 143.89
L24.2176 143.89
L24.2176 143.89
L24.2176 143.89
L24.2176 143.89
L24.2176 143.89
L24.2176 143.89
L24.2176 143.89
L24.2176 143.89
L24.2176 143.89
L24.2176 143.89
L24.2176 143.89
L24.2176 143.89
L24.2176 143.89
L24.2176 143.89
L24.2176 143.89
L24.2176 143.89
L24.2176 143.89
L24.2176 143.89
L24.2176 143.89
L24.2176 143.89
L24.2176 143.89
L24.2176 143.89
L24.2176 143.89
L24.2176 143.89
L24.2176 143.89
L24.2176 143.89
L24.2176 143.89
L24.2176 143.89
L24.2176 143.89
L24.2176 143.89
L24.2176 143.89
L24.2176 143.89
L24.2176 143.89
L24.2176 143.89
L24.2176 143.89
L24.2176 143.89
L24.2176 143.89
L24.2176 143.89
L24.2176 143.89
L24.2176 143.89
L24.2176 143.89
L24.2176 143.89
L24.2176 143.89
L24.2176 143.89
L24.2176 143.89
L24.2176 143.89
L24.2176 143.89
L24.2176 143.89
L24.2176 143.89
L24.2176 143.89
L24.2176 143.89
L24.2176 143.89
L24.2176 143.89
L24.2176 143.89
L24.2176 143.89
L24.2176 143.89
L24.2176 143.89
L24.2176 143.89
L24.2176 143.89
L24.2176 143.89
L24.2176 143.89
L24.2176 143.89
L24.2176 143.89
L24.2176 143.89
L24.2176 143.89
L24.2176 143.89
L24.2176 143.89
L24.2176 143.89
L24.2176 143.89
L24.2176 143.89
L24.2176 143.89
L24.2176 143.89
L24.2176 143.89
L24.2176 143.89
L24.2176 143.89
L24.2176 143.89
L24.2176 143.89
L24.2176 143.89
L24.2176 143.89
L24.2176 143.89
L24.2176 143.89
L24.2176 143.89
L24.2176 143.89
L24.2176 143.89
L24.2176 143.89
L24.2176 143.89
L24.2176 143.89
L24.2176 143.89
L24.2176 143.89
L24.2176 143.89
L24.2176 143.89
L24.2176 143.89
L24.2176 143.89
L24.2176 143.89
L24.2176 143.89
L24.2176 143.89
L24.2176 143.89
L24.2176 143.89
L24.2176 143.89
L24.2176 143.89
L24.2176 143.89
L24.2176 143.89
L24.2176 143.89
L24.2176 143.89
L24.2176 143.89
L24.2176 143.89
L24.2176 143.89
L24.2176 143.89
L24.2176 143.89
L24.2176 143.89
L24.2176 143.89
L24.2176 143.89
L24.2176 143.89
L24.2176 143.89
L24.2176 143.89
L24.2176 143.89
L24.2176 143.89
L24.2176 143.89
L24.2176 143.89
L24.2176 143.89
L24.2176 143.89
L24.2176 143.89
L24.2176 143.89
L24.2176 143.89
L24.2176 143.89
L24.2176 143.89
L24.2176 143.89
L24.2176 143.89
L24.2176 143.89
L24.2176 143.89
L24.2176 143.89
L24.2176 143.89
L24.2176 143.89
L24.2176 143.89
L24.2176 143.89
L24.2176 143.89
L24.2176 143.89
L24.2176 143.89
L24.2176 143.89
L24.2176 143.89
L24.2176 143.89
L24.2176 143.89
L24.2176 143.89
L24.2176 143.89
L24.2176 143.89
L217.689 143.89
L217.608 139.467
L217.365 135.049
L217.108 132.052
L216.776 129.062
L216.339 125.871
L215.816 122.694
L215.273 119.844
L214.662 117.01
L214.019 114.335
L212.803 109.877
L211.418 105.473
L211.114 104.579
L209.281 99.6168
L207.235 94.7476
L204.832 89.6877
L203.459 87.0435
L202.021 84.4374
L200.967 82.6203
L198.666 78.8885
L196.233 75.2512
L193.062 70.9074
L190.284 67.417
L186.936 63.5446
L184.74 61.1788
L182.483 58.8789
L179.214 55.761
L175.838 52.781
L173.284 50.6749
L170.676 48.6475
L169.481 47.7568
L165.906 45.2329
L162.251 42.8552
L159.544 41.2183
L156.801 39.6613
L152.573 37.4531
L149.48 35.9776
L146.355 34.6012
L144.212 33.722
L140.353 32.2673
L136.46 30.9618
L131.287 29.4698
L125.966 28.2154
L122.745 27.591
L119.521 27.0659
L115.104 26.5075
L111.455 26.1853
L107.815 25.989
L104.479 25.9188
L101.158 25.9536
L99.8301 25.9968
L95.0532 26.2922
L90.3306 26.8024
L89.8537 26.8662
L85.9993 27.4655
L82.1958 28.2061
L76.0161 29.7375
L70.2849 31.5404
L67.2061 32.6702
L63.5917 34.1493
L57.0358 37.2851
L54.8856 38.4513
L49.6231 41.6234
L45.2458 44.6439
L41.5928 47.4685
L37.0036 51.4736
L35.4913 52.9211
L31.4452 57.1622
L28.4582 60.7004
L26.1579 63.717
L24.3604 66.2885
L20.576 72.5091
L18.5363 76.4915
L16.9382 80.0712
L15.9659 82.5243
L14.5519 86.6356
L13.0697 92.1293
L12.5707 94.4993
L11.9088 98.5669
L11.5156 102.323
L11.3272 106.404
L11.3374 108.935
L11.6765 114.171
L12.1258 117.51
L12.7473 120.758
L12.9199 121.517
L13.841 124.962
L14.5463 127.142
L15.3278 129.255
L16.1844 131.306
L17.11 133.284
L18.6007 136.079
L19.3282 137.303
L21.0805 139.955
L22.6097 141.987
L23.8215 143.441
L25.0706 144.816
L26.5907 146.338
L27.6931 147.348
L28.8131 148.3
L29.6936 149
L31.2692 150.149
L32.8635 151.189
L34.5071 152.138
L36.0814 152.937
L37.2532 153.464
L38.4226 153.934
L39.559 154.337
L40.9546 154.763
L42.3363 155.108
L43.4343 155.328
L44.5187 155.498
L45.7346 155.631
L46.9277 155.702
L48.3244 155.706
L49.4114 155.648
L50.4697 155.538
L51.7518 155.327
L52.9374 155.051
L54.0767 154.704
L55.1593 154.292
L55.9256 153.945
L56.7464 153.516
L57.5219 153.048
L58.2543 152.54
L59.1121 151.846
L59.8884 151.102
L60.5107 150.398
L61.0286 149.713
L61.6362 148.74
L62.128 147.728
L62.2799 147.346
L62.5499 146.519
L62.7455 145.679
L62.8517 144.968
L62.9051 144.254
L62.9118 143.849
L62.8754 143.051
L62.7733 142.257
L62.5268 141.181
L62.1591 140.128
L61.9126 139.576
L61.632 139.034
L61.2098 138.335
L60.7296 137.659
L60.0127 136.811
L59.3099 136.113
L58.5366 135.457
L57.5982 134.783
L56.8407 134.318
L56.0393 133.891
L55.2855 133.543
L54.499 133.227
L53.1883 132.799
L52.0737 132.521
L50.9141 132.307
L50.5699 132.257
L49.1712 132.115
L47.7234 132.066
L46.9555 132.078
L45.9425 132.133
L44.9127 132.233
L43.6218 132.42
L42.3112 132.679
L41.2016 132.951
L39.2708 133.541
L37.476 134.223
L35.6748 135.04
L34.3027 135.754
L33.2363 136.366
L32.0714 137.093
L30.9148 137.879
L29.4676 138.957
L28.0423 140.128
L27.1571 140.914
L26.0282 141.987
L24.9219 143.122
L22.9336 145.393
L21.5426 147.187
L20.214 149.089
L19.4453 150.288
L18.2989 152.235
L17.1065 154.504
L16.0073 156.88
L15.1193 159.064
L14.3841 161.114
L13.7203 163.225
L13.5757 163.727
L12.9813 166.005
L12.4724 168.341
L12.1039 170.407
L11.5211 175.276
L11.3459 178.521
L11.3355 181.818
L11.5929 186.382
L12.1708 191.01
L12.6683 193.778
L13.7309 198.314
L14.579 201.232
L15.4735 203.91
L18.2542 210.692
L20.0422 214.282
L21.3151 216.59
L24.3692 221.506
L27.2888 225.582
L30.1383 229.118
L32.6806 231.975
L34.3453 233.716
L39.8769 238.879
L43.1901 241.584
L44.2426 242.391
L51.3022 247.221
L54.5497 249.141
L58.7381 251.369
L63.3443 253.524
L67.8448 255.355
L72.6056 257.017
L79.5657 258.974
L80.3826 259.168
L84.6432 260.069
L88.9709 260.791
L95.0122 261.485
L97.896 261.691
L103.198 261.861
L106.692 261.827
L111.924 261.561
L117.175 261.035
L118.289 260.89
L122.702 260.198
L127.107 259.32
L132.413 258.01
L136.341 256.857
L139.477 255.821
L145.147 253.682
L149.979 251.573
L154.732 249.229
L156.135 248.483
L158.876 246.951
L161.581 245.34
L164.902 243.221
L168.159 240.981
L170.704 239.112
L174.027 236.506
L177.262 233.772
L179.655 231.614
L183.263 228.122
L186.728 224.466
L188.905 222.001
L192.45 217.667
L194.617 214.796
L196.878 211.594
L199.036 208.314
L201.491 204.267
L203.788 200.119
L206.288 195.102
L207.001 193.553
L208.421 190.284
L209.745 186.97
L211.383 182.411
L212.553 178.742
L213.607 175.036
L214.792 170.194
L215.812 165.109
L216.613 159.981
L216.975 157.013
L217.261 154.049
L217.475 151.077
L217.635 147.486
L217.689 143.89
z
" style="fill:#808080;opacity:0.5;"/>
   </g>
   <g id="line2d_1">
    <path clip-path="url(#p3252448e88)" d="
M217.689 143.89
L217.608 139.467
L217.108 132.052
L216.339 125.871
L215.273 119.844
L214.019 114.335
L212.803 109.877
L211.114 104.579
L209.281 99.6168
L207.235 94.7476
L203.459 87.0435
L200.967 82.6203
L198.666 78.8885
L196.233 75.2512
L193.062 70.9074
L190.284 67.417
L186.936 63.5446
L182.483 58.8789
L179.214 55.761
L175.838 52.781
L170.676 48.6475
L169.481 47.7568
L165.906 45.2329
L159.544 41.2183
L156.801 39.6613
L152.573 37.4531
L146.355 34.6012
L144.212 33.722
L140.353 32.2673
L136.46 30.9618
L131.287 29.4698
L125.966 28.2154
L119.521 27.0659
L115.104 26.5075
L111.455 26.1853
L104.479 25.9188
L99.8301 25.9968
L95.0532 26.2922
L89.8537 26.8662
L85.9993 27.4655
L82.1958 28.2061
L76.0161 29.7375
L70.2849 31.5404
L67.2061 32.6702
L63.5917 34.1493
L57.0358 37.2851
L54.8856 38.4513
L49.6231 41.6234
L45.2458 44.6439
L41.5928 47.4685
L35.4913 52.9211
L31.4452 57.1622
L28.4582 60.7004
L26.1579 63.717
L24.3604 66.2885
L20.576 72.5091
L18.5363 76.4915
L16.9382 80.0712
L15.9659 82.5243
L14.5519 86.6356
L13.0697 92.1293
L12.5707 94.4993
L11.9088 98.5669
L11.5156 102.323
L11.3272 106.404
L11.3374 108.935
L11.6765 114.171
L12.1258 117.51
L12.9199 121.517
L13.841 124.962
L15.3278 129.255
L17.11 133.284
L19.3282 137.303
L21.0805 139.955
L23.8215 143.441
L26.5907 146.338
L28.8131 148.3
L31.2692 150.149
L34.5071 152.138
L37.2532 153.464
L39.559 154.337
L42.3363 155.108
L44.5187 155.498
L46.9277 155.702
L49.4114 155.648
L51.7518 155.327
L54.0767 154.704
L55.9256 153.945
L57.5219 153.048
L59.1121 151.846
L60.5107 150.398
L61.6362 148.74
L62.2799 147.346
L62.7455 145.679
L62.9118 143.849
L62.7733 142.257
L62.5268 141.181
L61.9126 139.576
L61.2098 138.335
L60.0127 136.811
L58.5366 135.457
L56.8407 134.318
L55.2855 133.543
L53.1883 132.799
L50.5699 132.257
L47.7234 132.066
L45.9425 132.133
L43.6218 132.42
L41.2016 132.951
L39.2708 133.541
L37.476 134.223
L34.3027 135.754
L32.0714 137.093
L29.4676 138.957
L27.1571 140.914
L24.9219 143.122
L22.9336 145.393
L21.5426 147.187
L19.4453 150.288
L18.2989 152.235
L17.1065 154.504
L15.1193 159.064
L13.7203 163.225
L12.9813 166.005
L12.1039 170.407
L11.5211 175.276
L11.3459 178.521
L11.3355 181.818
L11.5929 186.382
L12.1708 191.01
L12.6683 193.778
L13.7309 198.314
L14.579 201.232
L15.4735 203.91
L18.2542 210.692
L21.3151 216.59
L24.3692 221.506
L27.2888 225.582
L30.1383 229.118
L34.3453 233.716
L39.8769 238.879
L44.2426 242.391
L51.3022 247.221
L54.5497 249.141
L58.7381 251.369
L63.3443 253.524
L67.8448 255.355
L72.6056 257.017
L80.3826 259.168
L84.6432 260.069
L88.9709 260.791
L95.0122 261.485
L97.896 261.691
L103.198 261.861
L106.692 261.827
L111.924 261.561
L118.289 260.89
L122.702 260.198
L127.107 259.32
L132.413 258.01
L139.477 255.821
L145.147 253.682
L149.979 251.573
L156.135 248.483
L161.581 245.34
L164.902 243.221
L170.704 239.112
L174.027 236.506
L179.655 231.614
L183.263 228.122
L186.728 224.466
L188.905 222.001
L192.45 217.667
L194.617 214.796
L196.878 211.594
L199.036 208.314
L201.491 204.267
L203.788 200.119
L207.001 193.553
L209.745 186.97
L211.383 182.411
L212.553 178.742
L213.607 175.036
L214.792 170.194
L215.812 165.109
L216.975 157.013
L217.475 151.077
L217.689 143.89
L217.689 143.89" style="fill:none;stroke:#000000;stroke-width:2.0;"/>
   </g>
   <g id="matplotlib.axis_1">
    <g id="xtick_1">
     <g id="line2d_2">
      <defs>
       <path d="
M0 0
L0 -4" id="mcb557df647" style="stroke:#000000;stroke-linecap:butt;stroke-width:0.5;"/>
      </defs>
      <g>
       <use style="stroke:#000000;stroke-linecap:butt;stroke-width:0.5;" x="24.2176094562" xlink:href="#mcb557df647" y="143.890497868"/>
      </g>
     </g>
    </g>
    <g id="xtick_2">
     <g id="line2d_3">
      <g>
       <use style="stroke:#000000;stroke-linecap:butt;stroke-width:0.5;" x="62.9118749636" xlink:href="#mcb557df647" y="143.890497868"/>
      </g>
     </g>
     <g id="text_1">
      <!-- 1 -->
      <defs>
       <path d="
M12.4062 8.29688
L28.5156 8.29688
L28.5156 63.9219
L10.9844 60.4062
L10.9844 69.3906
L28.4219 72.9062
L38.2812 72.9062
L38.2812 8.29688
L54.3906 8.29688
L54.3906 0
L12.4062 0
z
" id="BitstreamVeraSans-Roman-31"/>
      </defs>
      <g transform="translate(60.7415624636 155.181122868)scale(0.1 -0.1)">
       <use xlink:href="#BitstreamVeraSans-Roman-31"/>
      </g>
     </g>
    </g>
    <g id="xtick_3">
     <g id="line2d_4">
      <g>
       <use style="stroke:#000000;stroke-linecap:butt;stroke-width:0.5;" x="101.606140471" xlink:href="#mcb557df647" y="143.890497868"/>
      </g>
     </g>
     <g id="text_2">
      <!-- 2 -->
      <defs>
       <path d="
M19.1875 8.29688
L53.6094 8.29688
L53.6094 0
L7.32812 0
L7.32812 8.29688
Q12.9375 14.1094 22.625 23.8906
Q32.3281 33.6875 34.8125 36.5312
Q39.5469 41.8438 41.4219 45.5312
Q43.3125 49.2188 43.3125 52.7812
Q43.3125 58.5938 39.2344 62.25
Q35.1562 65.9219 28.6094 65.9219
Q23.9688 65.9219 18.8125 64.3125
Q13.6719 62.7031 7.8125 59.4219
L7.8125 69.3906
Q13.7656 71.7812 18.9375 73
Q24.125 74.2188 28.4219 74.2188
Q39.75 74.2188 46.4844 68.5469
Q53.2188 62.8906 53.2188 53.4219
Q53.2188 48.9219 51.5312 44.8906
Q49.8594 40.875 45.4062 35.4062
Q44.1875 33.9844 37.6406 27.2188
Q31.1094 20.4531 19.1875 8.29688" id="BitstreamVeraSans-Roman-32"/>
      </defs>
      <g transform="translate(99.292077971 155.312372868)scale(0.1 -0.1)">
       <use xlink:href="#BitstreamVeraSans-Roman-32"/>
      </g>
     </g>
    </g>
    <g id="xtick_4">
     <g id="line2d_5">
      <g>
       <use style="stroke:#000000;stroke-linecap:butt;stroke-width:0.5;" x="140.300405978" xlink:href="#mcb557df647" y="143.890497868"/>
      </g>
     </g>
     <g id="text_3">
      <!-- 3 -->
      <defs>
       <path d="
M40.5781 39.3125
Q47.6562 37.7969 51.625 33
Q55.6094 28.2188 55.6094 21.1875
Q55.6094 10.4062 48.1875 4.48438
Q40.7656 -1.42188 27.0938 -1.42188
Q22.5156 -1.42188 17.6562 -0.515625
Q12.7969 0.390625 7.625 2.20312
L7.625 11.7188
Q11.7188 9.32812 16.5938 8.10938
Q21.4844 6.89062 26.8125 6.89062
Q36.0781 6.89062 40.9375 10.5469
Q45.7969 14.2031 45.7969 21.1875
Q45.7969 27.6406 41.2812 31.2656
Q36.7656 34.9062 28.7188 34.9062
L20.2188 34.9062
L20.2188 43.0156
L29.1094 43.0156
Q36.375 43.0156 40.2344 45.9219
Q44.0938 48.8281 44.0938 54.2969
Q44.0938 59.9062 40.1094 62.9062
Q36.1406 65.9219 28.7188 65.9219
Q24.6562 65.9219 20.0156 65.0312
Q15.375 64.1562 9.8125 62.3125
L9.8125 71.0938
Q15.4375 72.6562 20.3438 73.4375
Q25.25 74.2188 29.5938 74.2188
Q40.8281 74.2188 47.3594 69.1094
Q53.9062 64.0156 53.9062 55.3281
Q53.9062 49.2656 50.4375 45.0938
Q46.9688 40.9219 40.5781 39.3125" id="BitstreamVeraSans-Roman-33"/>
      </defs>
      <g transform="translate(137.901187228 155.312372868)scale(0.1 -0.1)">
       <use xlink:href="#BitstreamVeraSans-Roman-33"/>
      </g>
     </g>
    </g>
    <g id="xtick_5">
     <g id="line2d_6">
      <g>
       <use style="stroke:#000000;stroke-linecap:butt;stroke-width:0.5;" x="178.994671486" xlink:href="#mcb557df647" y="143.890497868"/>
      </g>
     </g>
     <g id="text_4">
      <!-- 4 -->
      <defs>
       <path d="
M37.7969 64.3125
L12.8906 25.3906
L37.7969 25.3906
z

M35.2031 72.9062
L47.6094 72.9062
L47.6094 25.3906
L58.0156 25.3906
L58.0156 17.1875
L47.6094 17.1875
L47.6094 0
L37.7969 0
L37.7969 17.1875
L4.89062 17.1875
L4.89062 26.7031
z
" id="BitstreamVeraSans-Roman-34"/>
      </defs>
      <g transform="translate(176.338421486 155.181122868)scale(0.1 -0.1)">
       <use xlink:href="#BitstreamVeraSans-Roman-34"/>
      </g>
     </g>
    </g>
    <g id="xtick_6">
     <g id="line2d_7">
      <g>
       <use style="stroke:#000000;stroke-linecap:butt;stroke-width:0.5;" x="217.688936993" xlink:href="#mcb557df647" y="143.890497868"/>
      </g>
     </g>
     <g id="text_5">
      <!-- 5 -->
      <defs>
       <path d="
M10.7969 72.9062
L49.5156 72.9062
L49.5156 64.5938
L19.8281 64.5938
L19.8281 46.7344
Q21.9688 47.4688 24.1094 47.8281
Q26.2656 48.1875 28.4219 48.1875
Q40.625 48.1875 47.75 41.5
Q54.8906 34.8125 54.8906 23.3906
Q54.8906 11.625 47.5625 5.09375
Q40.2344 -1.42188 26.9062 -1.42188
Q22.3125 -1.42188 17.5469 -0.640625
Q12.7969 0.140625 7.71875 1.70312
L7.71875 11.625
Q12.1094 9.23438 16.7969 8.0625
Q21.4844 6.89062 26.7031 6.89062
Q35.1562 6.89062 40.0781 11.3281
Q45.0156 15.7656 45.0156 23.3906
Q45.0156 31 40.0781 35.4375
Q35.1562 39.8906 26.7031 39.8906
Q22.75 39.8906 18.8125 39.0156
Q14.8906 38.1406 10.7969 36.2812
z
" id="BitstreamVeraSans-Roman-35"/>
      </defs>
      <g transform="translate(215.330343243 155.181122868)scale(0.1 -0.1)">
       <use xlink:href="#BitstreamVeraSans-Roman-35"/>
      </g>
     </g>
    </g>
    <g id="xtick_7">
     <g id="line2d_8">
      <defs>
       <path d="
M0 0
L0 -2" id="m6f8f3139b3" style="stroke:#000000;stroke-linecap:butt;stroke-width:0.5;"/>
      </defs>
      <g>
       <use style="stroke:#000000;stroke-linecap:butt;stroke-width:0.5;" x="8.73990325318" xlink:href="#m6f8f3139b3" y="143.890497868"/>
      </g>
     </g>
    </g>
    <g id="xtick_8">
     <g id="line2d_9">
      <g>
       <use style="stroke:#000000;stroke-linecap:butt;stroke-width:0.5;" x="16.4787563547" xlink:href="#m6f8f3139b3" y="143.890497868"/>
      </g>
     </g>
    </g>
    <g id="xtick_9">
     <g id="line2d_10">
      <g>
       <use style="stroke:#000000;stroke-linecap:butt;stroke-width:0.5;" x="31.9564625576" xlink:href="#m6f8f3139b3" y="143.890497868"/>
      </g>
     </g>
    </g>
    <g id="xtick_10">
     <g id="line2d_11">
      <g>
       <use style="stroke:#000000;stroke-linecap:butt;stroke-width:0.5;" x="39.6953156591" xlink:href="#m6f8f3139b3" y="143.890497868"/>
      </g>
     </g>
    </g>
    <g id="xtick_11">
     <g id="line2d_12">
      <g>
       <use style="stroke:#000000;stroke-linecap:butt;stroke-width:0.5;" x="47.4341687606" xlink:href="#m6f8f3139b3" y="143.890497868"/>
      </g>
     </g>
    </g>
    <g id="xtick_12">
     <g id="line2d_13">
      <g>
       <use style="stroke:#000000;stroke-linecap:butt;stroke-width:0.5;" x="55.1730218621" xlink:href="#m6f8f3139b3" y="143.890497868"/>
      </g>
     </g>
    </g>
    <g id="xtick_13">
     <g id="line2d_14">
      <g>
       <use style="stroke:#000000;stroke-linecap:butt;stroke-width:0.5;" x="62.9118749636" xlink:href="#m6f8f3139b3" y="143.890497868"/>
      </g>
     </g>
    </g>
    <g id="xtick_14">
     <g id="line2d_15">
      <g>
       <use style="stroke:#000000;stroke-linecap:butt;stroke-width:0.5;" x="70.6507280651" xlink:href="#m6f8f3139b3" y="143.890497868"/>
      </g>
     </g>
    </g>
    <g id="xtick_15">
     <g id="line2d_16">
      <g>
       <use style="stroke:#000000;stroke-linecap:butt;stroke-width:0.5;" x="78.3895811666" xlink:href="#m6f8f3139b3" y="143.890497868"/>
      </g>
     </g>
    </g>
    <g id="xtick_16">
     <g id="line2d_17">
      <g>
       <use style="stroke:#000000;stroke-linecap:butt;stroke-width:0.5;" x="86.1284342681" xlink:href="#m6f8f3139b3" y="143.890497868"/>
      </g>
     </g>
    </g>
    <g id="xtick_17">
     <g id="line2d_18">
      <g>
       <use style="stroke:#000000;stroke-linecap:butt;stroke-width:0.5;" x="93.8672873696" xlink:href="#m6f8f3139b3" y="143.890497868"/>
      </g>
     </g>
    </g>
    <g id="xtick_18">
     <g id="line2d_19">
      <g>
       <use style="stroke:#000000;stroke-linecap:butt;stroke-width:0.5;" x="101.606140471" xlink:href="#m6f8f3139b3" y="143.890497868"/>
      </g>
     </g>
    </g>
    <g id="xtick_19">
     <g id="line2d_20">
      <g>
       <use style="stroke:#000000;stroke-linecap:butt;stroke-width:0.5;" x="109.344993573" xlink:href="#m6f8f3139b3" y="143.890497868"/>
      </g>
     </g>
    </g>
    <g id="xtick_20">
     <g id="line2d_21">
      <g>
       <use style="stroke:#000000;stroke-linecap:butt;stroke-width:0.5;" x="117.083846674" xlink:href="#m6f8f3139b3" y="143.890497868"/>
      </g>
     </g>
    </g>
    <g id="xtick_21">
     <g id="line2d_22">
      <g>
       <use style="stroke:#000000;stroke-linecap:butt;stroke-width:0.5;" x="124.822699776" xlink:href="#m6f8f3139b3" y="143.890497868"/>
      </g>
     </g>
    </g>
    <g id="xtick_22">
     <g id="line2d_23">
      <g>
       <use style="stroke:#000000;stroke-linecap:butt;stroke-width:0.5;" x="132.561552877" xlink:href="#m6f8f3139b3" y="143.890497868"/>
      </g>
     </g>
    </g>
    <g id="xtick_23">
     <g id="line2d_24">
      <g>
       <use style="stroke:#000000;stroke-linecap:butt;stroke-width:0.5;" x="140.300405978" xlink:href="#m6f8f3139b3" y="143.890497868"/>
      </g>
     </g>
    </g>
    <g id="xtick_24">
     <g id="line2d_25">
      <g>
       <use style="stroke:#000000;stroke-linecap:butt;stroke-width:0.5;" x="148.03925908" xlink:href="#m6f8f3139b3" y="143.890497868"/>
      </g>
     </g>
    </g>
    <g id="xtick_25">
     <g id="line2d_26">
      <g>
       <use style="stroke:#000000;stroke-linecap:butt;stroke-width:0.5;" x="155.778112181" xlink:href="#m6f8f3139b3" y="143.890497868"/>
      </g>
     </g>
    </g>
    <g id="xtick_26">
     <g id="line2d_27">
      <g>
       <use style="stroke:#000000;stroke-linecap:butt;stroke-width:0.5;" x="163.516965283" xlink:href="#m6f8f3139b3" y="143.890497868"/>
      </g>
     </g>
    </g>
    <g id="xtick_27">
     <g id="line2d_28">
      <g>
       <use style="stroke:#000000;stroke-linecap:butt;stroke-width:0.5;" x="171.255818384" xlink:href="#m6f8f3139b3" y="143.890497868"/>
      </g>
     </g>
    </g>
    <g id="xtick_28">
     <g id="line2d_29">
      <g>
       <use style="stroke:#000000;stroke-linecap:butt;stroke-width:0.5;" x="178.994671486" xlink:href="#m6f8f3139b3" y="143.890497868"/>
      </g>
     </g>
    </g>
    <g id="xtick_29">
     <g id="line2d_30">
      <g>
       <use style="stroke:#000000;stroke-linecap:butt;stroke-width:0.5;" x="186.733524587" xlink:href="#m6f8f3139b3" y="143.890497868"/>
      </g>
     </g>
    </g>
    <g id="xtick_30">
     <g id="line2d_31">
      <g>
       <use style="stroke:#000000;stroke-linecap:butt;stroke-width:0.5;" x="194.472377689" xlink:href="#m6f8f3139b3" y="143.890497868"/>
      </g>
     </g>
    </g>
    <g id="xtick_31">
     <g id="line2d_32">
      <g>
       <use style="stroke:#000000;stroke-linecap:butt;stroke-width:0.5;" x="202.21123079" xlink:href="#m6f8f3139b3" y="143.890497868"/>
      </g>
     </g>
    </g>
    <g id="xtick_32">
     <g id="line2d_33">
      <g>
       <use style="stroke:#000000;stroke-linecap:butt;stroke-width:0.5;" x="209.950083892" xlink:href="#m6f8f3139b3" y="143.890497868"/>
      </g>
     </g>
    </g>
   </g>
   <g id="matplotlib.axis_2">
    <g id="ytick_1">
     <g id="line2d_34">
      <defs>
       <path d="
M0 0
L4 0" id="mc8fcea1516" style="stroke:#000000;stroke-linecap:butt;stroke-width:0.5;"/>
      </defs>
      <g>
       <use style="stroke:#000000;stroke-linecap:butt;stroke-width:0.5;" x="24.2176094562" xlink:href="#mc8fcea1516" y="259.973294391"/>
      </g>
     </g>
     <g id="text_6">
      <!-- -3 -->
      <defs>
       <path d="
M4.89062 31.3906
L31.2031 31.3906
L31.2031 23.3906
L4.89062 23.3906
z
" id="BitstreamVeraSans-Roman-2d"/>
      </defs>
      <g transform="translate(11.5379219562 263.613138141)scale(0.1 -0.1)">
       <use xlink:href="#BitstreamVeraSans-Roman-2d"/>
       <use x="36.083984375" xlink:href="#BitstreamVeraSans-Roman-33"/>
      </g>
     </g>
    </g>
    <g id="ytick_2">
     <g id="line2d_35">
      <g>
       <use style="stroke:#000000;stroke-linecap:butt;stroke-width:0.5;" x="24.2176094562" xlink:href="#mc8fcea1516" y="221.279028883"/>
      </g>
     </g>
     <g id="text_7">
      <!-- -2 -->
      <g transform="translate(11.7379219562 224.989966383)scale(0.1 -0.1)">
       <use xlink:href="#BitstreamVeraSans-Roman-2d"/>
       <use x="36.083984375" xlink:href="#BitstreamVeraSans-Roman-32"/>
      </g>
     </g>
    </g>
    <g id="ytick_3">
     <g id="line2d_36">
      <g>
       <use style="stroke:#000000;stroke-linecap:butt;stroke-width:0.5;" x="24.2176094562" xlink:href="#mc8fcea1516" y="182.584763376"/>
      </g>
     </g>
     <g id="text_8">
      <!-- -1 -->
      <g transform="translate(11.6597969562 186.230075876)scale(0.1 -0.1)">
       <use xlink:href="#BitstreamVeraSans-Roman-2d"/>
       <use x="36.083984375" xlink:href="#BitstreamVeraSans-Roman-31"/>
      </g>
     </g>
    </g>
    <g id="ytick_4">
     <g id="line2d_37">
      <g>
       <use style="stroke:#000000;stroke-linecap:butt;stroke-width:0.5;" x="24.2176094562" xlink:href="#mc8fcea1516" y="143.890497868"/>
      </g>
     </g>
    </g>
    <g id="ytick_5">
     <g id="line2d_38">
      <g>
       <use style="stroke:#000000;stroke-linecap:butt;stroke-width:0.5;" x="24.2176094562" xlink:href="#mc8fcea1516" y="105.196232361"/>
      </g>
     </g>
     <g id="text_9">
      <!-- 1 -->
      <g transform="translate(15.8769844562 108.841544861)scale(0.1 -0.1)">
       <use xlink:href="#BitstreamVeraSans-Roman-31"/>
      </g>
     </g>
    </g>
    <g id="ytick_6">
     <g id="line2d_39">
      <g>
       <use style="stroke:#000000;stroke-linecap:butt;stroke-width:0.5;" x="24.2176094562" xlink:href="#mc8fcea1516" y="66.5019668536"/>
      </g>
     </g>
     <g id="text_10">
      <!-- 2 -->
      <g transform="translate(15.5894844562 70.2129043536)scale(0.1 -0.1)">
       <use xlink:href="#BitstreamVeraSans-Roman-32"/>
      </g>
     </g>
    </g>
    <g id="ytick_7">
     <g id="line2d_40">
      <g>
       <use style="stroke:#000000;stroke-linecap:butt;stroke-width:0.5;" x="24.2176094562" xlink:href="#mc8fcea1516" y="27.8077013461"/>
      </g>
     </g>
     <g id="text_11">
      <!-- 3 -->
      <g transform="translate(15.4191719562 31.4475450961)scale(0.1 -0.1)">
       <use xlink:href="#BitstreamVeraSans-Roman-33"/>
      </g>
     </g>
    </g>
    <g id="ytick_8">
     <g id="line2d_41">
      <defs>
       <path d="
M0 0
L2 0" id="m57a2c8792a" style="stroke:#000000;stroke-linecap:butt;stroke-width:0.5;"/>
      </defs>
      <g>
       <use style="stroke:#000000;stroke-linecap:butt;stroke-width:0.5;" x="24.2176094562" xlink:href="#m57a2c8792a" y="252.234441289"/>
      </g>
     </g>
    </g>
    <g id="ytick_9">
     <g id="line2d_42">
      <g>
       <use style="stroke:#000000;stroke-linecap:butt;stroke-width:0.5;" x="24.2176094562" xlink:href="#m57a2c8792a" y="244.495588188"/>
      </g>
     </g>
    </g>
    <g id="ytick_10">
     <g id="line2d_43">
      <g>
       <use style="stroke:#000000;stroke-linecap:butt;stroke-width:0.5;" x="24.2176094562" xlink:href="#m57a2c8792a" y="236.756735086"/>
      </g>
     </g>
    </g>
    <g id="ytick_11">
     <g id="line2d_44">
      <g>
       <use style="stroke:#000000;stroke-linecap:butt;stroke-width:0.5;" x="24.2176094562" xlink:href="#m57a2c8792a" y="229.017881985"/>
      </g>
     </g>
    </g>
    <g id="ytick_12">
     <g id="line2d_45">
      <g>
       <use style="stroke:#000000;stroke-linecap:butt;stroke-width:0.5;" x="24.2176094562" xlink:href="#m57a2c8792a" y="213.540175782"/>
      </g>
     </g>
    </g>
    <g id="ytick_13">
     <g id="line2d_46">
      <g>
       <use style="stroke:#000000;stroke-linecap:butt;stroke-width:0.5;" x="24.2176094562" xlink:href="#m57a2c8792a" y="205.80132268"/>
      </g>
     </g>
    </g>
    <g id="ytick_14">
     <g id="line2d_47">
      <g>
       <use style="stroke:#000000;stroke-linecap:butt;stroke-width:0.5;" x="24.2176094562" xlink:href="#m57a2c8792a" y="198.062469579"/>
      </g>
     </g>
    </g>
    <g id="ytick_15">
     <g id="line2d_48">
      <g>
       <use style="stroke:#000000;stroke-linecap:butt;stroke-width:0.5;" x="24.2176094562" xlink:href="#m57a2c8792a" y="190.323616477"/>
      </g>
     </g>
    </g>
    <g id="ytick_16">
     <g id="line2d_49">
      <g>
       <use style="stroke:#000000;stroke-linecap:butt;stroke-width:0.5;" x="24.2176094562" xlink:href="#m57a2c8792a" y="182.584763376"/>
      </g>
     </g>
    </g>
    <g id="ytick_17">
     <g id="line2d_50">
      <g>
       <use style="stroke:#000000;stroke-linecap:butt;stroke-width:0.5;" x="24.2176094562" xlink:href="#m57a2c8792a" y="174.845910274"/>
      </g>
     </g>
    </g>
    <g id="ytick_18">
     <g id="line2d_51">
      <g>
       <use style="stroke:#000000;stroke-linecap:butt;stroke-width:0.5;" x="24.2176094562" xlink:href="#m57a2c8792a" y="167.107057173"/>
      </g>
     </g>
    </g>
    <g id="ytick_19">
     <g id="line2d_52">
      <g>
       <use style="stroke:#000000;stroke-linecap:butt;stroke-width:0.5;" x="24.2176094562" xlink:href="#m57a2c8792a" y="159.368204071"/>
      </g>
     </g>
    </g>
    <g id="ytick_20">
     <g id="line2d_53">
      <g>
       <use style="stroke:#000000;stroke-linecap:butt;stroke-width:0.5;" x="24.2176094562" xlink:href="#m57a2c8792a" y="151.62935097"/>
      </g>
     </g>
    </g>
    <g id="ytick_21">
     <g id="line2d_54">
      <g>
       <use style="stroke:#000000;stroke-linecap:butt;stroke-width:0.5;" x="24.2176094562" xlink:href="#m57a2c8792a" y="143.890497868"/>
      </g>
     </g>
    </g>
    <g id="ytick_22">
     <g id="line2d_55">
      <g>
       <use style="stroke:#000000;stroke-linecap:butt;stroke-width:0.5;" x="24.2176094562" xlink:href="#m57a2c8792a" y="136.151644767"/>
      </g>
     </g>
    </g>
    <g id="ytick_23">
     <g id="line2d_56">
      <g>
       <use style="stroke:#000000;stroke-linecap:butt;stroke-width:0.5;" x="24.2176094562" xlink:href="#m57a2c8792a" y="128.412791665"/>
      </g>
     </g>
    </g>
    <g id="ytick_24">
     <g id="line2d_57">
      <g>
       <use style="stroke:#000000;stroke-linecap:butt;stroke-width:0.5;" x="24.2176094562" xlink:href="#m57a2c8792a" y="120.673938564"/>
      </g>
     </g>
    </g>
    <g id="ytick_25">
     <g id="line2d_58">
      <g>
       <use style="stroke:#000000;stroke-linecap:butt;stroke-width:0.5;" x="24.2176094562" xlink:href="#m57a2c8792a" y="112.935085462"/>
      </g>
     </g>
    </g>
    <g id="ytick_26">
     <g id="line2d_59">
      <g>
       <use style="stroke:#000000;stroke-linecap:butt;stroke-width:0.5;" x="24.2176094562" xlink:href="#m57a2c8792a" y="105.196232361"/>
      </g>
     </g>
    </g>
    <g id="ytick_27">
     <g id="line2d_60">
      <g>
       <use style="stroke:#000000;stroke-linecap:butt;stroke-width:0.5;" x="24.2176094562" xlink:href="#m57a2c8792a" y="97.4573792595"/>
      </g>
     </g>
    </g>
    <g id="ytick_28">
     <g id="line2d_61">
      <g>
       <use style="stroke:#000000;stroke-linecap:butt;stroke-width:0.5;" x="24.2176094562" xlink:href="#m57a2c8792a" y="89.718526158"/>
      </g>
     </g>
    </g>
    <g id="ytick_29">
     <g id="line2d_62">
      <g>
       <use style="stroke:#000000;stroke-linecap:butt;stroke-width:0.5;" x="24.2176094562" xlink:href="#m57a2c8792a" y="81.9796730565"/>
      </g>
     </g>
    </g>
    <g id="ytick_30">
     <g id="line2d_63">
      <g>
       <use style="stroke:#000000;stroke-linecap:butt;stroke-width:0.5;" x="24.2176094562" xlink:href="#m57a2c8792a" y="74.240819955"/>
      </g>
     </g>
    </g>
    <g id="ytick_31">
     <g id="line2d_64">
      <g>
       <use style="stroke:#000000;stroke-linecap:butt;stroke-width:0.5;" x="24.2176094562" xlink:href="#m57a2c8792a" y="66.5019668536"/>
      </g>
     </g>
    </g>
    <g id="ytick_32">
     <g id="line2d_65">
      <g>
       <use style="stroke:#000000;stroke-linecap:butt;stroke-width:0.5;" x="24.2176094562" xlink:href="#m57a2c8792a" y="58.7631137521"/>
      </g>
     </g>
    </g>
    <g id="ytick_33">
     <g id="line2d_66">
      <g>
       <use style="stroke:#000000;stroke-linecap:butt;stroke-width:0.5;" x="24.2176094562" xlink:href="#m57a2c8792a" y="51.0242606506"/>
      </g>
     </g>
    </g>
    <g id="ytick_34">
     <g id="line2d_67">
      <g>
       <use style="stroke:#000000;stroke-linecap:butt;stroke-width:0.5;" x="24.2176094562" xlink:href="#m57a2c8792a" y="43.2854075491"/>
      </g>
     </g>
    </g>
    <g id="ytick_35">
     <g id="line2d_68">
      <g>
       <use style="stroke:#000000;stroke-linecap:butt;stroke-width:0.5;" x="24.2176094562" xlink:href="#m57a2c8792a" y="35.5465544476"/>
      </g>
     </g>
    </g>
   </g>
   <g id="patch_4">
    <path d="
M7.2 143.89
L221.816 143.89" style="fill:none;stroke:#000000;stroke-width:0.8;"/>
   </g>
   <g id="patch_5">
    <path d="
M24.2176 266.58
L24.2176 21.2" style="fill:none;stroke:#000000;stroke-width:0.8;"/>
   </g>
   <g id="text_12">
    <!-- $r=2+3\cos(\theta)$ -->
    <defs>
     <path d="
M9.51562 7.71875
Q11.8594 4.29688 15.8125 2.64062
Q19.7812 0.984375 24.3125 0.984375
Q30.125 0.984375 32.5625 5.9375
Q35.0156 10.8906 35.0156 17.1875
Q35.0156 20.0156 34.5 22.8438
Q33.9844 25.6875 32.7656 28.125
Q31.5469 30.5625 29.4219 32.0312
Q27.2969 33.5 24.2188 33.5
L17.5781 33.5
Q16.7031 33.5 16.7031 34.4219
L16.7031 35.2969
Q16.7031 36.0781 17.5781 36.0781
L23.0938 36.5312
Q26.6094 36.5312 28.9219 39.1562
Q31.25 41.7969 32.3281 45.5781
Q33.4062 49.3594 33.4062 52.7812
Q33.4062 57.5625 31.1562 60.6406
Q28.9062 63.7188 24.3125 63.7188
Q20.5156 63.7188 17.0469 62.2812
Q13.5781 60.8438 11.5312 57.9062
Q11.7188 57.9531 11.8594 57.9844
Q12.0156 58.0156 12.2031 58.0156
Q14.4531 58.0156 15.9688 56.4531
Q17.4844 54.8906 17.4844 52.6875
Q17.4844 50.5312 15.9688 48.9688
Q14.4531 47.4062 12.2031 47.4062
Q10.0156 47.4062 8.45312 48.9688
Q6.89062 50.5312 6.89062 52.6875
Q6.89062 56.9844 9.46875 60.1562
Q12.0625 63.3281 16.1406 64.9688
Q20.2188 66.6094 24.3125 66.6094
Q27.3438 66.6094 30.7031 65.7031
Q34.0781 64.7969 36.8125 63.1094
Q39.5469 61.4219 41.2812 58.7812
Q43.0156 56.1562 43.0156 52.7812
Q43.0156 48.5781 41.1406 45.0156
Q39.2656 41.4531 35.9844 38.8594
Q32.7188 36.2812 28.8125 35.0156
Q33.1562 34.1875 37.0625 31.7344
Q40.9688 29.2969 43.3281 25.4844
Q45.7031 21.6875 45.7031 17.2812
Q45.7031 11.7656 42.6719 7.29688
Q39.6562 2.82812 34.7188 0.3125
Q29.7812 -2.20312 24.3125 -2.20312
Q19.625 -2.20312 14.9062 -0.40625
Q10.2031 1.375 7.20312 4.9375
Q4.20312 8.5 4.20312 13.4844
Q4.20312 15.9688 5.85938 17.625
Q7.51562 19.2812 10.0156 19.2812
Q11.625 19.2812 12.9688 18.5312
Q14.3125 17.7812 15.0625 16.4062
Q15.8281 15.0469 15.8281 13.4844
Q15.8281 11.0312 14.1094 9.375
Q12.4062 7.71875 10.0156 7.71875
z
" id="Cmr10-33"/>
     <path d="
M4.98438 0
L4.98438 2.6875
Q4.98438 2.9375 5.17188 3.21875
L20.7031 20.4062
Q24.2188 24.2188 26.4062 26.7969
Q28.6094 29.3906 30.75 32.7656
Q32.9062 36.1406 34.1562 39.625
Q35.4062 43.1094 35.4062 47.0156
Q35.4062 51.125 33.8906 54.8594
Q32.375 58.5938 29.375 60.8438
Q26.375 63.0938 22.125 63.0938
Q17.7812 63.0938 14.3125 60.4688
Q10.8438 57.8594 9.42188 53.7188
Q9.8125 53.8125 10.5 53.8125
Q12.75 53.8125 14.3281 52.2969
Q15.9219 50.7812 15.9219 48.3906
Q15.9219 46.0938 14.3281 44.5
Q12.75 42.9219 10.5 42.9219
Q8.15625 42.9219 6.5625 44.5469
Q4.98438 46.1875 4.98438 48.3906
Q4.98438 52.1562 6.39062 55.4375
Q7.8125 58.7344 10.4688 61.2969
Q13.1406 63.875 16.4844 65.2344
Q19.8281 66.6094 23.5781 66.6094
Q29.2969 66.6094 34.2188 64.1875
Q39.1562 61.7656 42.0312 57.3438
Q44.9219 52.9375 44.9219 47.0156
Q44.9219 42.6719 43.0156 38.7656
Q41.1094 34.8594 38.125 31.6562
Q35.1562 28.4688 30.5156 24.4062
Q25.875 20.3594 24.4219 19
L13.0938 8.10938
L22.7031 8.10938
Q29.7812 8.10938 34.5469 8.21875
Q39.3125 8.34375 39.5938 8.59375
Q40.7656 9.85938 42 17.8281
L44.9219 17.8281
L42.0938 0
z
" id="Cmr10-32"/>
     <path d="
M31 -24.8125
Q25.4375 -20.4062 21.4062 -14.7188
Q17.3906 -9.03125 14.8125 -2.57812
Q12.25 3.85938 10.9844 10.8906
Q9.71875 17.9219 9.71875 25
Q9.71875 32.1719 10.9844 39.2031
Q12.25 46.2344 14.8594 52.7344
Q17.4844 59.2344 21.5312 64.8906
Q25.5938 70.5625 31 74.8125
Q31 75 31.5 75
L32.4219 75
Q32.7188 75 32.9531 74.7344
Q33.2031 74.4688 33.2031 74.125
Q33.2031 73.6875 33.0156 73.4844
Q28.125 68.7031 24.875 63.2344
Q21.625 57.7656 19.6406 51.5781
Q17.6719 45.4062 16.7969 38.7812
Q15.9219 32.1719 15.9219 25
Q15.9219 -6.78125 32.9062 -23.2969
Q33.2031 -23.5781 33.2031 -24.125
Q33.2031 -24.3594 32.9375 -24.6719
Q32.6719 -25 32.4219 -25
L31.5 -25
Q31 -25 31 -24.8125" id="Cmr10-28"/>
     <path d="
M6.5 -25
Q5.60938 -25 5.60938 -24.125
Q5.60938 -23.6875 5.8125 -23.4844
Q22.9062 -6.78125 22.9062 25
Q22.9062 56.7812 6 73.2969
Q5.60938 73.5312 5.60938 74.125
Q5.60938 74.4688 5.875 74.7344
Q6.15625 75 6.5 75
L7.42188 75
Q7.71875 75 7.90625 74.8125
Q15.0938 69.1406 19.875 61.0312
Q24.6562 52.9375 26.875 43.75
Q29.1094 34.5781 29.1094 25
Q29.1094 17.9219 27.9062 11.0625
Q26.7031 4.20312 24.0938 -2.45312
Q21.4844 -9.125 17.4844 -14.7656
Q13.4844 -20.4062 7.90625 -24.8125
Q7.71875 -25 7.42188 -25
z
" id="Cmr10-29"/>
     <path d="
M25 -1.125
Q19 -1.125 13.8594 1.92188
Q8.73438 4.98438 5.75 10.1094
Q2.78125 15.2344 2.78125 21.2969
Q2.78125 25.875 4.42188 30.125
Q6.0625 34.375 9.10938 37.7188
Q12.1562 41.0625 16.2031 42.9375
Q20.2656 44.8281 25 44.8281
Q31.1562 44.8281 36.2031 41.5781
Q41.2656 38.3281 44.1875 32.875
Q47.125 27.4375 47.125 21.2969
Q47.125 15.2812 44.1406 10.125
Q41.1562 4.98438 36.0469 1.92188
Q30.9531 -1.125 25 -1.125
M25 1.8125
Q33.0156 1.8125 35.6875 7.60938
Q38.375 13.4219 38.375 22.4062
Q38.375 27.4375 37.8438 30.7344
Q37.3125 34.0312 35.5 36.7188
Q34.375 38.375 32.6406 39.625
Q30.9062 40.875 28.9688 41.5312
Q27.0469 42.1875 25 42.1875
Q21.875 42.1875 19.0625 40.7656
Q16.2656 39.3594 14.4062 36.7188
Q12.5469 33.8906 12.0312 30.4844
Q11.5312 27.0938 11.5312 22.4062
Q11.5312 16.7969 12.5 12.3281
Q13.4844 7.85938 16.4375 4.82812
Q19.3906 1.8125 25 1.8125" id="Cmr10-6f"/>
     <path d="
M7.71875 1.70312
Q7.71875 2.29688 7.8125 2.59375
L15.2812 32.4219
Q16.0156 35.2031 16.0156 37.3125
Q16.0156 41.6094 13.0938 41.6094
Q9.96875 41.6094 8.45312 37.8594
Q6.9375 34.125 5.51562 28.4219
Q5.51562 28.125 5.21875 27.9531
Q4.9375 27.7812 4.6875 27.7812
L3.51562 27.7812
Q3.17188 27.7812 2.92188 28.1406
Q2.6875 28.5156 2.6875 28.8125
Q3.76562 33.1562 4.76562 36.1719
Q5.76562 39.2031 7.89062 41.6875
Q10.0156 44.1875 13.1875 44.1875
Q16.6562 44.1875 19.2656 42.1875
Q21.875 40.1875 22.5156 36.9219
Q25.0469 40.2344 28.2969 42.2031
Q31.5469 44.1875 35.4062 44.1875
Q38.5781 44.1875 40.9844 42.3281
Q43.4062 40.4844 43.4062 37.3125
Q43.4062 34.7656 41.8125 32.875
Q40.2344 31 37.5938 31
Q35.9844 31 34.8906 32
Q33.7969 33.0156 33.7969 34.625
Q33.7969 36.8125 35.4062 38.5469
Q37.0156 40.2812 39.1094 40.2812
Q37.5 41.6094 35.2031 41.6094
Q30.9062 41.6094 27.7344 38.5469
Q24.5625 35.5 22.0156 30.8125
L14.8906 2.20312
Q14.5469 0.828125 13.3438 -0.140625
Q12.1562 -1.125 10.6875 -1.125
Q9.46875 -1.125 8.59375 -0.34375
Q7.71875 0.4375 7.71875 1.70312" id="Cmmi10-72"/>
     <path d="
M7.51562 23
Q6.6875 23 6.14062 23.625
Q5.60938 24.2656 5.60938 25
Q5.60938 25.7344 6.14062 26.3594
Q6.6875 27 7.51562 27
L36.9219 27
L36.9219 56.5
Q36.9219 57.2812 37.5 57.7812
Q38.0938 58.2969 38.9219 58.2969
Q39.6562 58.2969 40.2812 57.7812
Q40.9219 57.2812 40.9219 56.5
L40.9219 27
L70.3125 27
Q71.0469 27 71.5781 26.3594
Q72.125 25.7344 72.125 25
Q72.125 24.2656 71.5781 23.625
Q71.0469 23 70.3125 23
L40.9219 23
L40.9219 -6.5
Q40.9219 -7.28125 40.2812 -7.78125
Q39.6562 -8.29688 38.9219 -8.29688
Q38.0938 -8.29688 37.5 -7.78125
Q36.9219 -7.28125 36.9219 -6.5
L36.9219 23
z
" id="Cmr10-2b"/>
     <path d="
M7.51562 13.2812
Q6.6875 13.2812 6.14062 13.9062
Q5.60938 14.5469 5.60938 15.2812
Q5.60938 16.1094 6.14062 16.6875
Q6.6875 17.2812 7.51562 17.2812
L70.3125 17.2812
Q71.0469 17.2812 71.5781 16.6875
Q72.125 16.1094 72.125 15.2812
Q72.125 14.5469 71.5781 13.9062
Q71.0469 13.2812 70.3125 13.2812
z

M7.51562 32.7188
Q6.6875 32.7188 6.14062 33.2969
Q5.60938 33.8906 5.60938 34.7188
Q5.60938 35.4531 6.14062 36.0781
Q6.6875 36.7188 7.51562 36.7188
L70.3125 36.7188
Q71.0469 36.7188 71.5781 36.0781
Q72.125 35.4531 72.125 34.7188
Q72.125 33.8906 71.5781 33.2969
Q71.0469 32.7188 70.3125 32.7188
z
" id="Cmr10-3d"/>
     <path d="
M16.1094 -1.125
Q11.5781 -1.125 8.84375 2.1875
Q6.10938 5.51562 5.04688 10.2031
Q4 14.8906 4 19.4844
L4 19.5781
Q4 24.5625 4.95312 29.9219
Q5.90625 35.2969 7.70312 40.6406
Q9.51562 46 11.625 50.2031
Q13.0938 53.125 15.4062 56.7344
Q17.7188 60.3594 20.5781 63.5
Q23.4375 66.6562 26.7344 68.5781
Q30.0312 70.5156 33.4062 70.5156
L33.5 70.5156
Q37.1094 70.5156 39.5156 68.5
Q41.9375 66.5 43.2812 63.375
Q44.625 60.25 45.1562 56.6875
Q45.7031 53.125 45.7031 49.9062
Q45.7031 42.3281 43.6562 34.4375
Q41.6094 26.5625 37.9844 19.1875
Q36.625 16.4062 34.2031 12.6406
Q31.7812 8.89062 29.0781 5.90625
Q26.375 2.9375 23 0.90625
Q19.625 -1.125 16.2188 -1.125
z

M16.3125 1.51562
Q19.625 1.51562 22.6719 5.04688
Q25.7344 8.59375 28.0312 13.6406
Q30.3281 18.7031 32.0625 24
Q33.7969 29.2969 34.625 33.0156
L14.2031 33.0156
Q12.6406 26.7031 11.7656 22.1406
Q10.8906 17.5781 10.8906 13.1875
Q10.8906 1.51562 16.3125 1.51562
M14.9844 36.5312
L35.5 36.5312
Q36.5781 40.9219 37.2031 43.875
Q37.8438 46.8281 38.2812 50.0938
Q38.7188 53.375 38.7188 56.2031
Q38.7188 67.9219 33.4062 67.9219
Q27.0469 67.9219 22.4375 57.6875
Q17.8281 47.4688 14.9844 36.5312" id="Cmmi10-b5"/>
     <path d="
M3.32812 -0.296875
L3.32812 16.0156
Q3.32812 16.7969 4.20312 16.7969
L5.42188 16.7969
Q6 16.7969 6.20312 16.0156
Q8.98438 1.51562 19.6719 1.51562
Q24.4219 1.51562 27.6094 3.65625
Q30.8125 5.8125 30.8125 10.2969
Q30.8125 13.5312 28.3125 15.7969
Q25.8281 18.0625 22.4062 18.8906
L15.7188 20.2188
Q12.3594 20.9531 9.59375 22.4531
Q6.84375 23.9688 5.07812 26.4844
Q3.32812 29 3.32812 32.3281
Q3.32812 36.7188 5.64062 39.5156
Q7.95312 42.3281 11.6562 43.5781
Q15.375 44.8281 19.6719 44.8281
Q24.8125 44.8281 28.6094 42.0938
L31.5 44.5781
Q31.5 44.8281 31.9844 44.8281
L32.7188 44.8281
Q33.0156 44.8281 33.25 44.5469
Q33.5 44.2812 33.5 44
L33.5 30.9062
Q33.5 29.9844 32.7188 29.9844
L31.5 29.9844
Q30.6094 29.9844 30.6094 30.9062
Q30.6094 36.1406 27.7031 39.3125
Q24.8125 42.4844 19.5781 42.4844
Q15.0938 42.4844 11.7969 40.8125
Q8.5 39.1562 8.5 35.1094
Q8.5 32.3281 10.8594 30.5469
Q13.2344 28.7656 16.4062 27.9844
L23.1875 26.7031
Q26.6094 25.9219 29.5625 24.0625
Q32.5156 22.2188 34.25 19.375
Q35.9844 16.5469 35.9844 12.9844
Q35.9844 9.375 34.7344 6.70312
Q33.5 4.04688 31.2656 2.28125
Q29.0469 0.53125 26.0156 -0.296875
Q23 -1.125 19.6719 -1.125
Q13.4219 -1.125 8.98438 3.07812
L5.32812 -0.875
Q5.32812 -1.125 4.78125 -1.125
L4.20312 -1.125
Q3.32812 -1.125 3.32812 -0.296875" id="Cmr10-73"/>
     <path d="
M24.9062 -1.125
Q18.8438 -1.125 13.9062 2.01562
Q8.98438 5.17188 6.15625 10.4219
Q3.32812 15.6719 3.32812 21.5781
Q3.32812 27.4844 6.125 32.9062
Q8.9375 38.3281 13.8906 41.5781
Q18.8438 44.8281 24.9062 44.8281
Q30.7656 44.8281 35.5625 42.5312
Q40.375 40.2344 40.375 35.0156
Q40.375 33.0625 38.9844 31.6094
Q37.5938 30.1719 35.5938 30.1719
Q33.5938 30.1719 32.2031 31.6094
Q30.8125 33.0625 30.8125 35.0156
Q30.8125 36.7656 31.9375 38.0625
Q33.0625 39.3594 34.7188 39.7031
Q31.25 41.8906 25 41.8906
Q20.2188 41.8906 17.2812 38.7188
Q14.3594 35.5469 13.1875 30.8594
Q12.0156 26.1719 12.0156 21.5781
Q12.0156 16.75 13.4531 12.2344
Q14.8906 7.71875 18.0938 4.76562
Q21.2969 1.8125 26.125 1.8125
Q30.8594 1.8125 34.1719 4.71875
Q37.5 7.625 38.7188 12.3125
Q38.7188 12.8906 39.5 12.8906
L40.7188 12.8906
Q41.0156 12.8906 41.25 12.625
Q41.5 12.3594 41.5 12.0156
L41.5 11.7188
Q39.9844 5.8125 35.4844 2.34375
Q31 -1.125 24.9062 -1.125" id="Cmr10-63"/>
    </defs>
    <g transform="translate(78.088085526 19.2)scale(0.12 -0.12)">
     <use transform="translate(0.0 25.0)" xlink:href="#Cmmi10-72"/>
     <use transform="translate(62.67578125 25.0)" xlink:href="#Cmr10-3d"/>
     <use transform="translate(146.734375 25.0)" xlink:href="#Cmr10-32"/>
     <use transform="translate(214.29296875 25.0)" xlink:href="#Cmr10-2b"/>
     <use transform="translate(298.3515625 25.0)" xlink:href="#Cmr10-33"/>
     <use transform="translate(348.3515625 25.0)" xlink:href="#Cmr10-63"/>
     <use transform="translate(392.736328125 25.0)" xlink:href="#Cmr10-6f"/>
     <use transform="translate(442.736328125 25.0)" xlink:href="#Cmr10-73"/>
     <use transform="translate(482.140625 25.0)" xlink:href="#Cmr10-28"/>
     <use transform="translate(520.958984375 25.0)" xlink:href="#Cmmi10-b5"/>
     <use transform="translate(567.8828125 25.0)" xlink:href="#Cmr10-29"/>
    </g>
   </g>
  </g>
 </g>
 <defs>
  <clipPath id="p3252448e88">
   <rect height="245.38" width="214.616171052" x="7.2" y="21.2"/>
  </clipPath>
 </defs>
</svg>
